<ttFont>
    <TTGlyph name=".notdef" xMin="50" yMin="0" xMax="450" yMax="705">
      <contour>
        <pt x="50" y="705" on="1"/>
        <pt x="450" y="705" on="1"/>
        <pt x="450" y="0" on="1"/>
        <pt x="50" y="0" on="1"/>
      </contour>
      <contour>
        <pt x="400" y="50" on="1"/>
        <pt x="400" y="655" on="1"/>
        <pt x="100" y="655" on="1"/>
        <pt x="100" y="50" on="1"/>
      </contour>
    </TTGlyph>
    <TTGlyph name="A" xMin="65" yMin="200" xMax="345" yMax="705">
      <contour>
        <pt x="271" y="455" on="1"/>
        <pt x="271" y="517" on="0"/>
        <pt x="264" y="591" on="0"/>
        <pt x="249" y="630" on="0"/>
        <pt x="224" y="642" on="0"/>
        <pt x="205" y="642" on="1"/>
        <pt x="186" y="642" on="0"/>
        <pt x="161" y="630" on="0"/>
        <pt x="146" y="591" on="0"/>
        <pt x="139" y="517" on="0"/>
        <pt x="139" y="455" on="1"/>
        <pt x="139" y="395" on="0"/>
        <pt x="145" y="320" on="0"/>
        <pt x="160" y="278" on="0"/>
        <pt x="186" y="263" on="0"/>
        <pt x="205" y="263" on="1"/>
        <pt x="224" y="263" on="0"/>
        <pt x="250" y="278" on="0"/>
        <pt x="265" y="320" on="0"/>
        <pt x="271" y="395" on="0"/>
      </contour>
      <contour>
        <pt x="345" y="459" on="1"/>
        <pt x="345" y="390" on="0"/>
        <pt x="334" y="292" on="0"/>
        <pt x="303" y="229" on="0"/>
        <pt x="249" y="200" on="0"/>
        <pt x="205" y="200" on="1"/>
        <pt x="162" y="200" on="0"/>
        <pt x="107" y="229" on="0"/>
        <pt x="76" y="292" on="0"/>
        <pt x="65" y="390" on="0"/>
        <pt x="65" y="459" on="1"/>
        <pt x="65" y="525" on="0"/>
        <pt x="76" y="618" on="0"/>
        <pt x="107" y="678" on="0"/>
        <pt x="162" y="705" on="0"/>
        <pt x="205" y="705" on="1"/>
        <pt x="249" y="705" on="0"/>
        <pt x="304" y="678" on="0"/>
        <pt x="334" y="618" on="0"/>
        <pt x="345" y="525" on="0"/>
      </contour>
    </TTGlyph>
    <TTGlyph name="AE" xMin="65" yMin="260" xMax="165" yMax="360">
      <contour>
        <pt x="65" y="260" on="1"/>
        <pt x="65" y="360" on="1"/>
        <pt x="165" y="360" on="1"/>
        <pt x="165" y="260" on="1"/>
      </contour>
    </TTGlyph>
    <TTGlyph name="Aacute" xMin="65" yMin="260" xMax="165" yMax="360">
      <contour>
        <pt x="65" y="260" on="1"/>
        <pt x="65" y="360" on="1"/>
        <pt x="165" y="360" on="1"/>
        <pt x="165" y="260" on="1"/>
      </contour>
    </TTGlyph>
    <TTGlyph name="Acircumflex" xMin="65" yMin="260" xMax="165" yMax="360">
      <contour>
        <pt x="65" y="260" on="1"/>
        <pt x="65" y="360" on="1"/>
        <pt x="165" y="360" on="1"/>
        <pt x="165" y="260" on="1"/>
      </contour>
    </TTGlyph>
    <TTGlyph name="Adieresis" xMin="65" yMin="260" xMax="165" yMax="360">
      <contour>
        <pt x="65" y="260" on="1"/>
        <pt x="65" y="360" on="1"/>
        <pt x="165" y="360" on="1"/>
        <pt x="165" y="260" on="1"/>
      </contour>
    </TTGlyph>
    <TTGlyph name="Agrave" xMin="65" yMin="260" xMax="165" yMax="360">
      <contour>
        <pt x="65" y="260" on="1"/>
        <pt x="65" y="360" on="1"/>
        <pt x="165" y="360" on="1"/>
        <pt x="165" y="260" on="1"/>
      </contour>
    </TTGlyph>
    <TTGlyph name="Aring" xMin="65" yMin="260" xMax="165" yMax="360">
      <contour>
        <pt x="65" y="260" on="1"/>
        <pt x="65" y="360" on="1"/>
        <pt x="165" y="360" on="1"/>
        <pt x="165" y="260" on="1"/>
      </contour>
    </TTGlyph>
    <TTGlyph name="Atilde" xMin="65" yMin="260" xMax="165" yMax="360">
      <contour>
        <pt x="65" y="260" on="1"/>
        <pt x="65" y="360" on="1"/>
        <pt x="165" y="360" on="1"/>
        <pt x="165" y="260" on="1"/>
      </contour>
    </TTGlyph>
    <TTGlyph name="B" xMin="86" yMin="205" xMax="329" yMax="700">
      <contour>
        <pt x="94" y="205" on="1"/>
        <pt x="94" y="271" on="1"/>
        <pt x="182" y="271" on="1"/>
        <pt x="182" y="630" on="1"/>
        <pt x="86" y="591" on="1"/>
        <pt x="86" y="662" on="1"/>
        <pt x="174" y="700" on="1"/>
        <pt x="257" y="700" on="1"/>
        <pt x="257" y="271" on="1"/>
        <pt x="329" y="271" on="1"/>
        <pt x="329" y="205" on="1"/>
      </contour>
    </TTGlyph>
    <TTGlyph name="C" xMin="66" yMin="205" xMax="312" yMax="705">
      <contour>
        <pt x="66" y="205" on="1"/>
        <pt x="66" y="276" on="1"/>
        <pt x="178" y="433" on="1"/>
        <pt x="195" y="459" on="0"/>
        <pt x="216" y="494" on="0"/>
        <pt x="227" y="525" on="0"/>
        <pt x="231" y="557" on="0"/>
        <pt x="231" y="579" on="1"/>
        <pt x="231" y="608" on="0"/>
        <pt x="206" y="641" on="0"/>
        <pt x="171" y="641" on="1"/>
        <pt x="147" y="641" on="0"/>
        <pt x="97" y="634" on="0"/>
        <pt x="79" y="630" on="1"/>
        <pt x="79" y="694" on="1"/>
        <pt x="86" y="695" on="0"/>
        <pt x="141" y="705" on="0"/>
        <pt x="171" y="705" on="1"/>
        <pt x="305" y="705" on="0"/>
        <pt x="305" y="572" on="1"/>
        <pt x="305" y="548" on="0"/>
        <pt x="300" y="512" on="0"/>
        <pt x="286" y="476" on="0"/>
        <pt x="263" y="436" on="0"/>
        <pt x="246" y="410" on="1"/>
        <pt x="148" y="270" on="1"/>
        <pt x="312" y="270" on="1"/>
        <pt x="312" y="205" on="1"/>
      </contour>
    </TTGlyph>
    <TTGlyph name="Ccedilla" xMin="65" yMin="260" xMax="165" yMax="360">
      <contour>
        <pt x="65" y="260" on="1"/>
        <pt x="65" y="360" on="1"/>
        <pt x="165" y="360" on="1"/>
        <pt x="165" y="260" on="1"/>
      </contour>
    </TTGlyph>
    <TTGlyph name="D" xMin="80" yMin="200" xMax="312" yMax="705">
      <contour>
        <pt x="312" y="351" on="1"/>
        <pt x="312" y="267" on="0"/>
        <pt x="241" y="200" on="0"/>
        <pt x="179" y="200" on="1"/>
        <pt x="165" y="200" on="0"/>
        <pt x="133" y="203" on="0"/>
        <pt x="104" y="207" on="0"/>
        <pt x="83" y="210" on="0"/>
        <pt x="80" y="211" on="1"/>
        <pt x="80" y="275" on="1"/>
        <pt x="94" y="272" on="0"/>
        <pt x="149" y="263" on="0"/>
        <pt x="174" y="263" on="1"/>
        <pt x="203" y="263" on="0"/>
        <pt x="237" y="303" on="0"/>
        <pt x="237" y="343" on="1"/>
        <pt x="237" y="391" on="0"/>
        <pt x="213" y="438" on="0"/>
        <pt x="172" y="438" on="1"/>
        <pt x="115" y="438" on="1"/>
        <pt x="115" y="501" on="1"/>
        <pt x="165" y="501" on="1"/>
        <pt x="188" y="501" on="0"/>
        <pt x="214" y="517" on="0"/>
        <pt x="226" y="541" on="0"/>
        <pt x="229" y="568" on="0"/>
        <pt x="229" y="579" on="1"/>
        <pt x="229" y="618" on="0"/>
        <pt x="201" y="642" on="0"/>
        <pt x="172" y="642" on="1"/>
        <pt x="147" y="642" on="0"/>
        <pt x="101" y="634" on="0"/>
        <pt x="84" y="630" on="1"/>
        <pt x="84" y="694" on="1"/>
        <pt x="87" y="695" on="0"/>
        <pt x="106" y="698" on="0"/>
        <pt x="131" y="702" on="0"/>
        <pt x="161" y="705" on="0"/>
        <pt x="175" y="705" on="1"/>
        <pt x="204" y="705" on="0"/>
        <pt x="251" y="694" on="0"/>
        <pt x="285" y="664" on="0"/>
        <pt x="303" y="613" on="0"/>
        <pt x="303" y="572" on="1"/>
        <pt x="303" y="537" on="0"/>
        <pt x="275" y="483" on="0"/>
        <pt x="245" y="472" on="1"/>
        <pt x="277" y="465" on="0"/>
        <pt x="312" y="405" on="0"/>
      </contour>
    </TTGlyph>
    <TTGlyph name="Delta" xMin="65" yMin="260" xMax="165" yMax="360">
      <contour>
        <pt x="65" y="260" on="1"/>
        <pt x="65" y="360" on="1"/>
        <pt x="165" y="360" on="1"/>
        <pt x="165" y="260" on="1"/>
      </contour>
    </TTGlyph>
    <TTGlyph name="E" xMin="83" yMin="205" xMax="354" yMax="700">
      <contour>
        <pt x="304" y="322" on="1"/>
        <pt x="304" y="205" on="1"/>
        <pt x="230" y="205" on="1"/>
        <pt x="230" y="322" on="1"/>
        <pt x="83" y="322" on="1"/>
        <pt x="83" y="396" on="1"/>
        <pt x="157" y="700" on="1"/>
        <pt x="226" y="700" on="1"/>
        <pt x="153" y="386" on="1"/>
        <pt x="230" y="386" on="1"/>
        <pt x="237" y="529" on="1"/>
        <pt x="304" y="529" on="1"/>
        <pt x="304" y="386" on="1"/>
        <pt x="354" y="386" on="1"/>
        <pt x="354" y="322" on="1"/>
      </contour>
    </TTGlyph>
    <TTGlyph name="Eacute" xMin="65" yMin="260" xMax="165" yMax="360">
      <contour>
        <pt x="65" y="260" on="1"/>
        <pt x="65" y="360" on="1"/>
        <pt x="165" y="360" on="1"/>
        <pt x="165" y="260" on="1"/>
      </contour>
    </TTGlyph>
    <TTGlyph name="Ecircumflex" xMin="65" yMin="260" xMax="165" yMax="360">
      <contour>
        <pt x="65" y="260" on="1"/>
        <pt x="65" y="360" on="1"/>
        <pt x="165" y="360" on="1"/>
        <pt x="165" y="260" on="1"/>
      </contour>
    </TTGlyph>
    <TTGlyph name="Edieresis" xMin="65" yMin="260" xMax="165" yMax="360">
      <contour>
        <pt x="65" y="260" on="1"/>
        <pt x="65" y="360" on="1"/>
        <pt x="165" y="360" on="1"/>
        <pt x="165" y="260" on="1"/>
      </contour>
    </TTGlyph>
    <TTGlyph name="Egrave" xMin="65" yMin="260" xMax="165" yMax="360">
      <contour>
        <pt x="65" y="260" on="1"/>
        <pt x="65" y="360" on="1"/>
        <pt x="165" y="360" on="1"/>
        <pt x="165" y="260" on="1"/>
      </contour>
    </TTGlyph>
    <TTGlyph name="Eth" xMin="65" yMin="260" xMax="165" yMax="360">
      <contour>
        <pt x="65" y="260" on="1"/>
        <pt x="65" y="360" on="1"/>
        <pt x="165" y="360" on="1"/>
        <pt x="165" y="260" on="1"/>
      </contour>
    </TTGlyph>
    <TTGlyph name="Euro" xMin="65" yMin="260" xMax="165" yMax="360">
      <contour>
        <pt x="65" y="260" on="1"/>
        <pt x="65" y="360" on="1"/>
        <pt x="165" y="360" on="1"/>
        <pt x="165" y="260" on="1"/>
      </contour>
    </TTGlyph>
    <TTGlyph name="F" xMin="96" yMin="200" xMax="323" yMax="700">
      <contour>
        <pt x="173" y="636" on="1"/>
        <pt x="173" y="511" on="1"/>
        <pt x="182" y="511" on="1"/>
        <pt x="223" y="511" on="0"/>
        <pt x="277" y="494" on="0"/>
        <pt x="309" y="457" on="0"/>
        <pt x="323" y="400" on="0"/>
        <pt x="323" y="359" on="1"/>
        <pt x="323" y="271" on="0"/>
        <pt x="252" y="200" on="0"/>
        <pt x="190" y="200" on="1"/>
        <pt x="161" y="200" on="0"/>
        <pt x="113" y="208" on="0"/>
        <pt x="96" y="211" on="1"/>
        <pt x="96" y="275" on="1"/>
        <pt x="106" y="273" on="0"/>
        <pt x="158" y="264" on="0"/>
        <pt x="190" y="264" on="1"/>
        <pt x="223" y="264" on="0"/>
        <pt x="249" y="310" on="0"/>
        <pt x="249" y="351" on="1"/>
        <pt x="249" y="383" on="0"/>
        <pt x="242" y="421" on="0"/>
        <pt x="227" y="442" on="0"/>
        <pt x="202" y="448" on="0"/>
        <pt x="183" y="448" on="1"/>
        <pt x="103" y="448" on="1"/>
        <pt x="103" y="700" on="1"/>
        <pt x="302" y="700" on="1"/>
        <pt x="302" y="636" on="1"/>
      </contour>
    </TTGlyph>
    <TTGlyph name="G" xMin="70" yMin="200" xMax="338" yMax="705">
      <contour>
        <pt x="338" y="363" on="1"/>
        <pt x="338" y="319" on="0"/>
        <pt x="317" y="257" on="0"/>
        <pt x="281" y="218" on="0"/>
        <pt x="232" y="200" on="0"/>
        <pt x="203" y="200" on="1"/>
        <pt x="168" y="200" on="0"/>
        <pt x="118" y="222" on="0"/>
        <pt x="85" y="283" on="0"/>
        <pt x="70" y="391" on="0"/>
        <pt x="70" y="477" on="1"/>
        <pt x="70" y="549" on="0"/>
        <pt x="95" y="638" on="0"/>
        <pt x="140" y="687" on="0"/>
        <pt x="201" y="705" on="0"/>
        <pt x="236" y="705" on="1"/>
        <pt x="253" y="705" on="0"/>
        <pt x="298" y="698" on="0"/>
        <pt x="308" y="696" on="1"/>
        <pt x="308" y="632" on="1"/>
        <pt x="293" y="636" on="0"/>
        <pt x="255" y="643" on="0"/>
        <pt x="231" y="643" on="1"/>
        <pt x="211" y="643" on="0"/>
        <pt x="181" y="633" on="0"/>
        <pt x="159" y="604" on="0"/>
        <pt x="147" y="551" on="0"/>
        <pt x="145" y="508" on="1"/>
        <pt x="156" y="516" on="0"/>
        <pt x="191" y="529" on="0"/>
        <pt x="217" y="529" on="1"/>
        <pt x="255" y="529" on="0"/>
        <pt x="302" y="506" on="0"/>
        <pt x="329" y="464" on="0"/>
        <pt x="338" y="402" on="0"/>
      </contour>
      <contour>
        <pt x="212" y="467" on="1"/>
        <pt x="187" y="467" on="0"/>
        <pt x="152" y="454" on="0"/>
        <pt x="144" y="449" on="1"/>
        <pt x="144" y="387" on="0"/>
        <pt x="150" y="314" on="0"/>
        <pt x="163" y="275" on="0"/>
        <pt x="186" y="264" on="0"/>
        <pt x="202" y="264" on="1"/>
        <pt x="238" y="264" on="0"/>
        <pt x="264" y="312" on="0"/>
        <pt x="264" y="357" on="1"/>
        <pt x="264" y="389" on="0"/>
        <pt x="261" y="431" on="0"/>
        <pt x="250" y="456" on="0"/>
        <pt x="230" y="467" on="0"/>
      </contour>
    </TTGlyph>
    <TTGlyph name="H" xMin="80" yMin="205" xMax="309" yMax="700">
      <contour>
        <pt x="191" y="205" on="1"/>
        <pt x="117" y="205" on="1"/>
        <pt x="239" y="635" on="1"/>
        <pt x="80" y="635" on="1"/>
        <pt x="80" y="700" on="1"/>
        <pt x="309" y="700" on="1"/>
        <pt x="309" y="619" on="1"/>
      </contour>
    </TTGlyph>
    <TTGlyph name="I" xMin="58" yMin="200" xMax="352" yMax="705">
      <contour>
        <pt x="278" y="334" on="1"/>
        <pt x="278" y="359" on="0"/>
        <pt x="273" y="397" on="0"/>
        <pt x="253" y="422" on="0"/>
        <pt x="213" y="435" on="0"/>
        <pt x="179" y="435" on="1"/>
        <pt x="164" y="426" on="0"/>
        <pt x="146" y="409" on="0"/>
        <pt x="136" y="386" on="0"/>
        <pt x="133" y="355" on="0"/>
        <pt x="133" y="333" on="1"/>
        <pt x="133" y="290" on="0"/>
        <pt x="173" y="262" on="0"/>
        <pt x="205" y="262" on="1"/>
        <pt x="237" y="262" on="0"/>
        <pt x="278" y="290" on="0"/>
      </contour>
      <contour>
        <pt x="269" y="576" on="1"/>
        <pt x="269" y="643" on="0"/>
        <pt x="205" y="643" on="1"/>
        <pt x="141" y="643" on="0"/>
        <pt x="141" y="576" on="1"/>
        <pt x="141" y="550" on="0"/>
        <pt x="147" y="517" on="0"/>
        <pt x="166" y="498" on="0"/>
        <pt x="200" y="491" on="0"/>
        <pt x="227" y="491" on="1"/>
        <pt x="254" y="502" on="0"/>
        <pt x="269" y="544" on="0"/>
      </contour>
      <contour>
        <pt x="352" y="342" on="1"/>
        <pt x="352" y="271" on="0"/>
        <pt x="281" y="200" on="0"/>
        <pt x="205" y="200" on="1"/>
        <pt x="129" y="200" on="0"/>
        <pt x="58" y="271" on="0"/>
        <pt x="58" y="342" on="1"/>
        <pt x="58" y="366" on="0"/>
        <pt x="70" y="402" on="0"/>
        <pt x="88" y="429" on="0"/>
        <pt x="111" y="448" on="0"/>
        <pt x="123" y="456" on="1"/>
        <pt x="96" y="469" on="0"/>
        <pt x="68" y="530" on="0"/>
        <pt x="68" y="569" on="1"/>
        <pt x="68" y="638" on="0"/>
        <pt x="147" y="705" on="0"/>
        <pt x="205" y="705" on="1"/>
        <pt x="234" y="705" on="0"/>
        <pt x="283" y="689" on="0"/>
        <pt x="321" y="656" on="0"/>
        <pt x="342" y="605" on="0"/>
        <pt x="342" y="569" on="1"/>
        <pt x="342" y="541" on="0"/>
        <pt x="318" y="491" on="0"/>
        <pt x="283" y="471" on="1"/>
        <pt x="320" y="462" on="0"/>
        <pt x="352" y="390" on="0"/>
      </contour>
    </TTGlyph>
    <TTGlyph name="Iacute" xMin="65" yMin="260" xMax="165" yMax="360">
      <contour>
        <pt x="65" y="260" on="1"/>
        <pt x="65" y="360" on="1"/>
        <pt x="165" y="360" on="1"/>
        <pt x="165" y="260" on="1"/>
      </contour>
    </TTGlyph>
    <TTGlyph name="Icircumflex" xMin="65" yMin="260" xMax="165" yMax="360">
      <contour>
        <pt x="65" y="260" on="1"/>
        <pt x="65" y="360" on="1"/>
        <pt x="165" y="360" on="1"/>
        <pt x="165" y="260" on="1"/>
      </contour>
    </TTGlyph>
    <TTGlyph name="Idieresis" xMin="65" yMin="260" xMax="165" yMax="360">
      <contour>
        <pt x="65" y="260" on="1"/>
        <pt x="65" y="360" on="1"/>
        <pt x="165" y="360" on="1"/>
        <pt x="165" y="260" on="1"/>
      </contour>
    </TTGlyph>
    <TTGlyph name="Igrave" xMin="65" yMin="260" xMax="165" yMax="360">
      <contour>
        <pt x="65" y="260" on="1"/>
        <pt x="65" y="360" on="1"/>
        <pt x="165" y="360" on="1"/>
        <pt x="165" y="260" on="1"/>
      </contour>
    </TTGlyph>
    <TTGlyph name="J" xMin="100" yMin="201" xMax="368" yMax="706">
      <contour>
        <pt x="100" y="543" on="1"/>
        <pt x="100" y="587" on="0"/>
        <pt x="122" y="649" on="0"/>
        <pt x="159" y="688" on="0"/>
        <pt x="208" y="706" on="0"/>
        <pt x="235" y="706" on="1"/>
        <pt x="271" y="706" on="0"/>
        <pt x="321" y="684" on="0"/>
        <pt x="353" y="623" on="0"/>
        <pt x="368" y="515" on="0"/>
        <pt x="368" y="429" on="1"/>
        <pt x="368" y="357" on="0"/>
        <pt x="343" y="268" on="0"/>
        <pt x="299" y="219" on="0"/>
        <pt x="239" y="201" on="0"/>
        <pt x="204" y="201" on="1"/>
        <pt x="187" y="201" on="0"/>
        <pt x="145" y="206" on="0"/>
        <pt x="135" y="208" on="1"/>
        <pt x="135" y="272" on="1"/>
        <pt x="150" y="268" on="0"/>
        <pt x="185" y="263" on="0"/>
        <pt x="209" y="263" on="1"/>
        <pt x="229" y="263" on="0"/>
        <pt x="258" y="273" on="0"/>
        <pt x="279" y="302" on="0"/>
        <pt x="291" y="355" on="0"/>
        <pt x="293" y="398" on="1"/>
        <pt x="281" y="390" on="0"/>
        <pt x="246" y="377" on="0"/>
        <pt x="221" y="377" on="1"/>
        <pt x="183" y="377" on="0"/>
        <pt x="136" y="400" on="0"/>
        <pt x="109" y="442" on="0"/>
        <pt x="100" y="504" on="0"/>
      </contour>
      <contour>
        <pt x="226" y="439" on="1"/>
        <pt x="251" y="439" on="0"/>
        <pt x="285" y="452" on="0"/>
        <pt x="294" y="457" on="1"/>
        <pt x="294" y="519" on="0"/>
        <pt x="288" y="592" on="0"/>
        <pt x="274" y="630" on="0"/>
        <pt x="253" y="642" on="0"/>
        <pt x="236" y="642" on="1"/>
        <pt x="200" y="642" on="0"/>
        <pt x="174" y="594" on="0"/>
        <pt x="174" y="549" on="1"/>
        <pt x="174" y="518" on="0"/>
        <pt x="177" y="475" on="0"/>
        <pt x="188" y="450" on="0"/>
        <pt x="208" y="439" on="0"/>
      </contour>
    </TTGlyph>
    <TTGlyph name="K" xMin="102" yMin="137" xMax="448" yMax="483">
      <contour>
        <pt x="275" y="253" on="1"/>
        <pt x="158" y="137" on="1"/>
        <pt x="102" y="193" on="1"/>
        <pt x="218" y="310" on="1"/>
        <pt x="102" y="427" on="1"/>
        <pt x="158" y="483" on="1"/>
        <pt x="275" y="367" on="1"/>
        <pt x="392" y="483" on="1"/>
        <pt x="448" y="427" on="1"/>
        <pt x="332" y="310" on="1"/>
        <pt x="448" y="193" on="1"/>
        <pt x="392" y="137" on="1"/>
      </contour>
    </TTGlyph>
    <TTGlyph name="L" xMin="45" yMin="-2" xMax="519" yMax="700">
      <contour>
        <pt x="429" y="625" on="1"/>
        <pt x="429" y="117" on="1"/>
        <pt x="429" y="91" on="0"/>
        <pt x="442" y="70" on="0"/>
        <pt x="462" y="70" on="1"/>
        <pt x="470" y="70" on="0"/>
        <pt x="485" y="74" on="0"/>
        <pt x="489" y="75" on="1"/>
        <pt x="489" y="5" on="1"/>
        <pt x="478" y="3" on="0"/>
        <pt x="449" y="-2" on="0"/>
        <pt x="429" y="-2" on="1"/>
        <pt x="414" y="-2" on="0"/>
        <pt x="384" y="8" on="0"/>
        <pt x="358" y="34" on="0"/>
        <pt x="342" y="78" on="0"/>
        <pt x="342" y="112" on="1"/>
        <pt x="342" y="625" on="1"/>
        <pt x="211" y="625" on="1"/>
        <pt x="211" y="0" on="1"/>
        <pt x="124" y="0" on="1"/>
        <pt x="124" y="625" on="1"/>
        <pt x="45" y="625" on="1"/>
        <pt x="45" y="700" on="1"/>
        <pt x="519" y="700" on="1"/>
        <pt x="519" y="625" on="1"/>
      </contour>
    </TTGlyph>
    <TTGlyph name="Lslash" xMin="65" yMin="260" xMax="165" yMax="360">
      <contour>
        <pt x="65" y="260" on="1"/>
        <pt x="65" y="360" on="1"/>
        <pt x="165" y="360" on="1"/>
        <pt x="165" y="260" on="1"/>
      </contour>
    </TTGlyph>
    <TTGlyph name="M" xMin="40" yMin="-170" xMax="425" yMax="700">
      <contour>
        <pt x="40" y="-170" on="1"/>
        <pt x="40" y="-76" on="1"/>
        <pt x="208" y="267" on="1"/>
        <pt x="53" y="605" on="1"/>
        <pt x="53" y="700" on="1"/>
        <pt x="414" y="700" on="1"/>
        <pt x="414" y="625" on="1"/>
        <pt x="141" y="625" on="1"/>
        <pt x="303" y="267" on="1"/>
        <pt x="126" y="-96" on="1"/>
        <pt x="425" y="-96" on="1"/>
        <pt x="425" y="-170" on="1"/>
      </contour>
    </TTGlyph>
    <TTGlyph name="N" xMin="45" yMin="146" xMax="685" yMax="474">
      <contour>
        <pt x="224" y="401" on="1"/>
        <pt x="178" y="401" on="0"/>
        <pt x="128" y="361" on="0"/>
        <pt x="128" y="310" on="1"/>
        <pt x="128" y="259" on="0"/>
        <pt x="177" y="219" on="0"/>
        <pt x="224" y="219" on="1"/>
        <pt x="253" y="219" on="0"/>
        <pt x="293" y="232" on="0"/>
        <pt x="317" y="261" on="0"/>
        <pt x="327" y="306" on="0"/>
        <pt x="327" y="339" on="1"/>
        <pt x="315" y="368" on="0"/>
        <pt x="259" y="401" on="0"/>
      </contour>
      <contour>
        <pt x="370" y="225" on="1"/>
        <pt x="353" y="189" on="0"/>
        <pt x="277" y="146" on="0"/>
        <pt x="226" y="146" on="1"/>
        <pt x="133" y="146" on="0"/>
        <pt x="45" y="232" on="0"/>
        <pt x="45" y="310" on="1"/>
        <pt x="45" y="388" on="0"/>
        <pt x="133" y="474" on="0"/>
        <pt x="226" y="474" on="1"/>
        <pt x="265" y="474" on="0"/>
        <pt x="335" y="442" on="0"/>
        <pt x="361" y="395" on="1"/>
        <pt x="378" y="431" on="0"/>
        <pt x="453" y="474" on="0"/>
        <pt x="504" y="474" on="1"/>
        <pt x="597" y="474" on="0"/>
        <pt x="685" y="388" on="0"/>
        <pt x="685" y="310" on="1"/>
        <pt x="685" y="232" on="0"/>
        <pt x="597" y="146" on="0"/>
        <pt x="504" y="146" on="1"/>
        <pt x="465" y="146" on="0"/>
        <pt x="396" y="178" on="0"/>
      </contour>
      <contour>
        <pt x="506" y="219" on="1"/>
        <pt x="552" y="219" on="0"/>
        <pt x="602" y="259" on="0"/>
        <pt x="602" y="310" on="1"/>
        <pt x="602" y="361" on="0"/>
        <pt x="553" y="401" on="0"/>
        <pt x="506" y="401" on="1"/>
        <pt x="448" y="401" on="0"/>
        <pt x="404" y="346" on="0"/>
        <pt x="404" y="281" on="1"/>
        <pt x="416" y="252" on="0"/>
        <pt x="471" y="219" on="0"/>
      </contour>
    </TTGlyph>
    <TTGlyph name="Ntilde" xMin="65" yMin="260" xMax="165" yMax="360">
      <contour>
        <pt x="65" y="260" on="1"/>
        <pt x="65" y="360" on="1"/>
        <pt x="165" y="360" on="1"/>
        <pt x="165" y="260" on="1"/>
      </contour>
    </TTGlyph>
    <TTGlyph name="O" xMin="57" yMin="128" xMax="482" yMax="620">
      <contour>
        <pt x="226" y="490" on="1"/>
        <pt x="57" y="355" on="1"/>
        <pt x="57" y="457" on="1"/>
        <pt x="269" y="620" on="1"/>
        <pt x="482" y="457" on="1"/>
        <pt x="482" y="355" on="1"/>
        <pt x="312" y="491" on="1"/>
        <pt x="312" y="128" on="1"/>
        <pt x="226" y="128" on="1"/>
      </contour>
    </TTGlyph>
    <TTGlyph name="OE" xMin="65" yMin="260" xMax="165" yMax="360">
      <contour>
        <pt x="65" y="260" on="1"/>
        <pt x="65" y="360" on="1"/>
        <pt x="165" y="360" on="1"/>
        <pt x="165" y="260" on="1"/>
      </contour>
    </TTGlyph>
    <TTGlyph name="Oacute" xMin="65" yMin="260" xMax="165" yMax="360">
      <contour>
        <pt x="65" y="260" on="1"/>
        <pt x="65" y="360" on="1"/>
        <pt x="165" y="360" on="1"/>
        <pt x="165" y="260" on="1"/>
      </contour>
    </TTGlyph>
    <TTGlyph name="Ocircumflex" xMin="65" yMin="260" xMax="165" yMax="360">
      <contour>
        <pt x="65" y="260" on="1"/>
        <pt x="65" y="360" on="1"/>
        <pt x="165" y="360" on="1"/>
        <pt x="165" y="260" on="1"/>
      </contour>
    </TTGlyph>
    <TTGlyph name="Odieresis" xMin="65" yMin="260" xMax="165" yMax="360">
      <contour>
        <pt x="65" y="260" on="1"/>
        <pt x="65" y="360" on="1"/>
        <pt x="165" y="360" on="1"/>
        <pt x="165" y="260" on="1"/>
      </contour>
    </TTGlyph>
    <TTGlyph name="Ograve" xMin="65" yMin="260" xMax="165" yMax="360">
      <contour>
        <pt x="65" y="260" on="1"/>
        <pt x="65" y="360" on="1"/>
        <pt x="165" y="360" on="1"/>
        <pt x="165" y="260" on="1"/>
      </contour>
    </TTGlyph>
    <TTGlyph name="Omega" xMin="65" yMin="260" xMax="165" yMax="360">
      <contour>
        <pt x="65" y="260" on="1"/>
        <pt x="65" y="360" on="1"/>
        <pt x="165" y="360" on="1"/>
        <pt x="165" y="260" on="1"/>
      </contour>
    </TTGlyph>
    <TTGlyph name="Oslash" xMin="65" yMin="260" xMax="165" yMax="360">
      <contour>
        <pt x="65" y="260" on="1"/>
        <pt x="65" y="360" on="1"/>
        <pt x="165" y="360" on="1"/>
        <pt x="165" y="260" on="1"/>
      </contour>
    </TTGlyph>
    <TTGlyph name="Otilde" xMin="65" yMin="260" xMax="165" yMax="360">
      <contour>
        <pt x="65" y="260" on="1"/>
        <pt x="65" y="360" on="1"/>
        <pt x="165" y="360" on="1"/>
        <pt x="165" y="260" on="1"/>
      </contour>
    </TTGlyph>
    <TTGlyph name="P" xMin="29" yMin="157" xMax="521" yMax="582">
      <contour>
        <pt x="388" y="411" on="1"/>
        <pt x="253" y="582" on="1"/>
        <pt x="358" y="582" on="1"/>
        <pt x="521" y="370" on="1"/>
        <pt x="358" y="157" on="1"/>
        <pt x="253" y="157" on="1"/>
        <pt x="389" y="329" on="1"/>
        <pt x="29" y="329" on="1"/>
        <pt x="29" y="411" on="1"/>
      </contour>
    </TTGlyph>
    <TTGlyph name="Q" xMin="72" yMin="162" xMax="485" yMax="575">
      <contour>
        <pt x="170" y="418" on="1"/>
        <pt x="145" y="202" on="1"/>
        <pt x="72" y="275" on="1"/>
        <pt x="107" y="540" on="1"/>
        <pt x="373" y="575" on="1"/>
        <pt x="446" y="502" on="1"/>
        <pt x="229" y="478" on="1"/>
        <pt x="485" y="222" on="1"/>
        <pt x="425" y="162" on="1"/>
      </contour>
    </TTGlyph>
    <TTGlyph name="R" xMin="71" yMin="166" xMax="484" yMax="579">
      <contour>
        <pt x="327" y="481" on="1"/>
        <pt x="111" y="506" on="1"/>
        <pt x="184" y="579" on="1"/>
        <pt x="449" y="544" on="1"/>
        <pt x="484" y="278" on="1"/>
        <pt x="411" y="205" on="1"/>
        <pt x="387" y="422" on="1"/>
        <pt x="131" y="166" on="1"/>
        <pt x="71" y="226" on="1"/>
      </contour>
    </TTGlyph>
    <TTGlyph name="S" xMin="90" yMin="0" xMax="690" yMax="700">
      <contour>
        <pt x="90" y="0" on="1"/>
        <pt x="90" y="700" on="1"/>
        <pt x="690" y="700" on="1"/>
        <pt x="690" y="0" on="1"/>
      </contour>
      <contour>
        <pt x="603" y="621" on="1"/>
        <pt x="177" y="621" on="1"/>
        <pt x="177" y="79" on="1"/>
        <pt x="603" y="79" on="1"/>
      </contour>
    </TTGlyph>
    <TTGlyph name="Scaron" xMin="65" yMin="260" xMax="165" yMax="360">
      <contour>
        <pt x="65" y="260" on="1"/>
        <pt x="65" y="360" on="1"/>
        <pt x="165" y="360" on="1"/>
        <pt x="165" y="260" on="1"/>
      </contour>
    </TTGlyph>
    <TTGlyph name="T" xMin="90" yMin="-170" xMax="690" yMax="850">
      <contour>
        <pt x="90" y="-170" on="1"/>
        <pt x="90" y="850" on="1"/>
        <pt x="690" y="850" on="1"/>
        <pt x="690" y="-170" on="1"/>
      </contour>
      <contour>
        <pt x="603" y="771" on="1"/>
        <pt x="177" y="771" on="1"/>
        <pt x="177" y="-91" on="1"/>
        <pt x="603" y="-91" on="1"/>
      </contour>
    </TTGlyph>
    <TTGlyph name="Thorn" xMin="65" yMin="260" xMax="165" yMax="360">
      <contour>
        <pt x="65" y="260" on="1"/>
        <pt x="65" y="360" on="1"/>
        <pt x="165" y="360" on="1"/>
        <pt x="165" y="260" on="1"/>
      </contour>
    </TTGlyph>
    <TTGlyph name="U" xMin="25" yMin="-7" xMax="471" yMax="707">
      <contour>
        <pt x="471" y="361" on="1"/>
        <pt x="471" y="249" on="0"/>
        <pt x="446" y="106" on="0"/>
        <pt x="395" y="24" on="0"/>
        <pt x="319" y="-7" on="0"/>
        <pt x="269" y="-7" on="1"/>
        <pt x="240" y="-7" on="0"/>
        <pt x="179" y="-6" on="0"/>
        <pt x="153" y="-4" on="1"/>
        <pt x="123" y="-2" on="0"/>
        <pt x="95" y="0" on="1"/>
        <pt x="95" y="325" on="1"/>
        <pt x="25" y="325" on="1"/>
        <pt x="25" y="400" on="1"/>
        <pt x="95" y="400" on="1"/>
        <pt x="95" y="700" on="1"/>
        <pt x="122" y="702" on="0"/>
        <pt x="150" y="704" on="1"/>
        <pt x="174" y="706" on="0"/>
        <pt x="231" y="707" on="0"/>
        <pt x="257" y="707" on="1"/>
        <pt x="310" y="707" on="0"/>
        <pt x="390" y="682" on="0"/>
        <pt x="444" y="607" on="0"/>
        <pt x="471" y="472" on="0"/>
      </contour>
      <contour>
        <pt x="382" y="354" on="1"/>
        <pt x="382" y="444" on="0"/>
        <pt x="367" y="554" on="0"/>
        <pt x="339" y="614" on="0"/>
        <pt x="302" y="634" on="0"/>
        <pt x="279" y="634" on="1"/>
        <pt x="265" y="634" on="0"/>
        <pt x="232" y="633" on="0"/>
        <pt x="217" y="632" on="1"/>
        <pt x="199" y="631" on="0"/>
        <pt x="182" y="630" on="1"/>
        <pt x="182" y="400" on="1"/>
        <pt x="295" y="400" on="1"/>
        <pt x="295" y="325" on="1"/>
        <pt x="182" y="325" on="1"/>
        <pt x="182" y="70" on="1"/>
        <pt x="197" y="69" on="0"/>
        <pt x="214" y="68" on="1"/>
        <pt x="228" y="67" on="0"/>
        <pt x="262" y="66" on="0"/>
        <pt x="278" y="66" on="1"/>
        <pt x="301" y="66" on="0"/>
        <pt x="340" y="94" on="0"/>
        <pt x="367" y="161" on="0"/>
        <pt x="382" y="272" on="0"/>
      </contour>
    </TTGlyph>
    <TTGlyph name="Uacute" xMin="65" yMin="260" xMax="165" yMax="360">
      <contour>
        <pt x="65" y="260" on="1"/>
        <pt x="65" y="360" on="1"/>
        <pt x="165" y="360" on="1"/>
        <pt x="165" y="260" on="1"/>
      </contour>
    </TTGlyph>
    <TTGlyph name="Ucircumflex" xMin="65" yMin="260" xMax="165" yMax="360">
      <contour>
        <pt x="65" y="260" on="1"/>
        <pt x="65" y="360" on="1"/>
        <pt x="165" y="360" on="1"/>
        <pt x="165" y="260" on="1"/>
      </contour>
    </TTGlyph>
    <TTGlyph name="Udieresis" xMin="65" yMin="260" xMax="165" yMax="360">
      <contour>
        <pt x="65" y="260" on="1"/>
        <pt x="65" y="360" on="1"/>
        <pt x="165" y="360" on="1"/>
        <pt x="165" y="260" on="1"/>
      </contour>
    </TTGlyph>
    <TTGlyph name="Ugrave" xMin="65" yMin="260" xMax="165" yMax="360">
      <contour>
        <pt x="65" y="260" on="1"/>
        <pt x="65" y="360" on="1"/>
        <pt x="165" y="360" on="1"/>
        <pt x="165" y="260" on="1"/>
      </contour>
    </TTGlyph>
    <TTGlyph name="V" xMin="25" yMin="0" xMax="395" yMax="700">
      <contour>
        <pt x="85" y="0" on="1"/>
        <pt x="85" y="329" on="1"/>
        <pt x="25" y="300" on="1"/>
        <pt x="25" y="380" on="1"/>
        <pt x="85" y="409" on="1"/>
        <pt x="85" y="700" on="1"/>
        <pt x="172" y="700" on="1"/>
        <pt x="172" y="451" on="1"/>
        <pt x="295" y="510" on="1"/>
        <pt x="295" y="430" on="1"/>
        <pt x="172" y="371" on="1"/>
        <pt x="172" y="76" on="1"/>
        <pt x="395" y="76" on="1"/>
        <pt x="395" y="0" on="1"/>
      </contour>
    </TTGlyph>
    <TTGlyph name="W" xMin="85" yMin="0" xMax="450" yMax="700">
      <contour>
        <pt x="450" y="362" on="1"/>
        <pt x="450" y="305" on="0"/>
        <pt x="429" y="222" on="0"/>
        <pt x="383" y="167" on="0"/>
        <pt x="309" y="141" on="0"/>
        <pt x="256" y="141" on="1"/>
        <pt x="172" y="141" on="1"/>
        <pt x="172" y="0" on="1"/>
        <pt x="85" y="0" on="1"/>
        <pt x="85" y="700" on="1"/>
        <pt x="172" y="700" on="1"/>
        <pt x="172" y="570" on="1"/>
        <pt x="191" y="571" on="0"/>
        <pt x="231" y="574" on="0"/>
        <pt x="254" y="574" on="1"/>
        <pt x="311" y="574" on="0"/>
        <pt x="387" y="542" on="0"/>
        <pt x="432" y="486" on="0"/>
        <pt x="450" y="408" on="0"/>
      </contour>
      <contour>
        <pt x="361" y="355" on="1"/>
        <pt x="361" y="430" on="0"/>
        <pt x="320" y="502" on="0"/>
        <pt x="266" y="502" on="1"/>
        <pt x="224" y="502" on="0"/>
        <pt x="198" y="499" on="1"/>
        <pt x="183" y="497" on="0"/>
        <pt x="172" y="496" on="1"/>
        <pt x="172" y="214" on="1"/>
        <pt x="266" y="214" on="1"/>
        <pt x="287" y="214" on="0"/>
        <pt x="322" y="227" on="0"/>
        <pt x="347" y="260" on="0"/>
        <pt x="361" y="314" on="0"/>
      </contour>
    </TTGlyph>
    <TTGlyph name="X" xMin="58" yMin="-7" xMax="392" yMax="845">
      <contour>
        <pt x="176" y="845" on="1"/>
        <pt x="236" y="778" on="1"/>
        <pt x="296" y="845" on="1"/>
        <pt x="392" y="845" on="1"/>
        <pt x="280" y="730" on="1"/>
        <pt x="192" y="730" on="1"/>
        <pt x="79" y="845" on="1"/>
      </contour>
      <contour>
        <pt x="381" y="199" on="1"/>
        <pt x="381" y="137" on="0"/>
        <pt x="353" y="57" on="0"/>
        <pt x="301" y="11" on="0"/>
        <pt x="228" y="-7" on="0"/>
        <pt x="183" y="-7" on="1"/>
        <pt x="159" y="-7" on="0"/>
        <pt x="93" y="1" on="0"/>
        <pt x="67" y="8" on="1"/>
        <pt x="67" y="81" on="1"/>
        <pt x="90" y="75" on="0"/>
        <pt x="152" y="66" on="0"/>
        <pt x="193" y="66" on="1"/>
        <pt x="245" y="66" on="0"/>
        <pt x="292" y="126" on="0"/>
        <pt x="292" y="189" on="1"/>
        <pt x="292" y="225" on="0"/>
        <pt x="282" y="274" on="0"/>
        <pt x="262" y="305" on="0"/>
        <pt x="231" y="321" on="0"/>
        <pt x="211" y="325" on="1"/>
        <pt x="169" y="334" on="0"/>
        <pt x="111" y="362" on="0"/>
        <pt x="75" y="406" on="0"/>
        <pt x="58" y="470" on="0"/>
        <pt x="58" y="514" on="1"/>
        <pt x="58" y="568" on="0"/>
        <pt x="87" y="641" on="0"/>
        <pt x="140" y="687" on="0"/>
        <pt x="212" y="707" on="0"/>
        <pt x="255" y="707" on="1"/>
        <pt x="280" y="707" on="0"/>
        <pt x="339" y="698" on="0"/>
        <pt x="361" y="692" on="1"/>
        <pt x="361" y="619" on="1"/>
        <pt x="335" y="625" on="0"/>
        <pt x="271" y="634" on="0"/>
        <pt x="245" y="634" on="1"/>
        <pt x="226" y="634" on="0"/>
        <pt x="191" y="622" on="0"/>
        <pt x="164" y="596" on="0"/>
        <pt x="147" y="555" on="0"/>
        <pt x="147" y="525" on="1"/>
        <pt x="147" y="495" on="0"/>
        <pt x="153" y="454" on="0"/>
        <pt x="170" y="428" on="0"/>
        <pt x="200" y="413" on="0"/>
        <pt x="224" y="408" on="1"/>
        <pt x="260" y="401" on="0"/>
        <pt x="318" y="375" on="0"/>
        <pt x="359" y="328" on="0"/>
        <pt x="381" y="254" on="0"/>
      </contour>
    </TTGlyph>
    <TTGlyph name="Y" xMin="20" yMin="0" xMax="471" yMax="841">
      <contour>
        <pt x="186" y="726" on="1"/>
        <pt x="290" y="841" on="1"/>
        <pt x="401" y="841" on="1"/>
        <pt x="269" y="726" on="1"/>
      </contour>
      <contour>
        <pt x="289" y="325" on="1"/>
        <pt x="289" y="0" on="1"/>
        <pt x="199" y="0" on="1"/>
        <pt x="199" y="325" on="1"/>
        <pt x="20" y="700" on="1"/>
        <pt x="116" y="700" on="1"/>
        <pt x="248" y="409" on="1"/>
        <pt x="380" y="700" on="1"/>
        <pt x="471" y="700" on="1"/>
      </contour>
    </TTGlyph>
    <TTGlyph name="Yacute" xMin="65" yMin="260" xMax="165" yMax="360">
      <contour>
        <pt x="65" y="260" on="1"/>
        <pt x="65" y="360" on="1"/>
        <pt x="165" y="360" on="1"/>
        <pt x="165" y="260" on="1"/>
      </contour>
    </TTGlyph>
    <TTGlyph name="Ydieresis" xMin="65" yMin="260" xMax="165" yMax="360">
      <contour>
        <pt x="65" y="260" on="1"/>
        <pt x="65" y="360" on="1"/>
        <pt x="165" y="360" on="1"/>
        <pt x="165" y="260" on="1"/>
      </contour>
    </TTGlyph>
    <TTGlyph name="Z" xMin="45" yMin="0" xMax="391" yMax="845">
      <contour>
        <pt x="169" y="845" on="1"/>
        <pt x="229" y="778" on="1"/>
        <pt x="289" y="845" on="1"/>
        <pt x="385" y="845" on="1"/>
        <pt x="273" y="730" on="1"/>
        <pt x="185" y="730" on="1"/>
        <pt x="72" y="845" on="1"/>
      </contour>
      <contour>
        <pt x="134" y="74" on="1"/>
        <pt x="381" y="74" on="1"/>
        <pt x="381" y="0" on="1"/>
        <pt x="45" y="0" on="1"/>
        <pt x="45" y="88" on="1"/>
        <pt x="303" y="626" on="1"/>
        <pt x="68" y="626" on="1"/>
        <pt x="68" y="700" on="1"/>
        <pt x="391" y="700" on="1"/>
        <pt x="391" y="612" on="1"/>
      </contour>
    </TTGlyph>
    <TTGlyph name="Zcaron" xMin="65" yMin="260" xMax="165" yMax="360">
      <contour>
        <pt x="65" y="260" on="1"/>
        <pt x="65" y="360" on="1"/>
        <pt x="165" y="360" on="1"/>
        <pt x="165" y="260" on="1"/>
      </contour>
    </TTGlyph>
    <TTGlyph name="a" xMin="65" yMin="-5" xMax="345" yMax="500">
      <contour>
        <pt x="271" y="250" on="1"/>
        <pt x="271" y="312" on="0"/>
        <pt x="264" y="386" on="0"/>
        <pt x="249" y="425" on="0"/>
        <pt x="224" y="437" on="0"/>
        <pt x="205" y="437" on="1"/>
        <pt x="186" y="437" on="0"/>
        <pt x="161" y="425" on="0"/>
        <pt x="146" y="386" on="0"/>
        <pt x="139" y="312" on="0"/>
        <pt x="139" y="250" on="1"/>
        <pt x="139" y="190" on="0"/>
        <pt x="145" y="115" on="0"/>
        <pt x="160" y="73" on="0"/>
        <pt x="186" y="58" on="0"/>
        <pt x="205" y="58" on="1"/>
        <pt x="224" y="58" on="0"/>
        <pt x="250" y="73" on="0"/>
        <pt x="265" y="115" on="0"/>
        <pt x="271" y="190" on="0"/>
      </contour>
      <contour>
        <pt x="345" y="254" on="1"/>
        <pt x="345" y="185" on="0"/>
        <pt x="334" y="87" on="0"/>
        <pt x="303" y="24" on="0"/>
        <pt x="249" y="-5" on="0"/>
        <pt x="205" y="-5" on="1"/>
        <pt x="162" y="-5" on="0"/>
        <pt x="107" y="24" on="0"/>
        <pt x="76" y="87" on="0"/>
        <pt x="65" y="185" on="0"/>
        <pt x="65" y="254" on="1"/>
        <pt x="65" y="320" on="0"/>
        <pt x="76" y="413" on="0"/>
        <pt x="107" y="473" on="0"/>
        <pt x="162" y="500" on="0"/>
        <pt x="205" y="500" on="1"/>
        <pt x="249" y="500" on="0"/>
        <pt x="304" y="473" on="0"/>
        <pt x="334" y="413" on="0"/>
        <pt x="345" y="320" on="0"/>
      </contour>
    </TTGlyph>
    <TTGlyph name="aacute" xMin="65" yMin="260" xMax="165" yMax="360">
      <contour>
        <pt x="65" y="260" on="1"/>
        <pt x="65" y="360" on="1"/>
        <pt x="165" y="360" on="1"/>
        <pt x="165" y="260" on="1"/>
      </contour>
    </TTGlyph>
    <TTGlyph name="acircumflex" xMin="65" yMin="260" xMax="165" yMax="360">
      <contour>
        <pt x="65" y="260" on="1"/>
        <pt x="65" y="360" on="1"/>
        <pt x="165" y="360" on="1"/>
        <pt x="165" y="260" on="1"/>
      </contour>
    </TTGlyph>
    <TTGlyph name="acute" xMin="65" yMin="260" xMax="165" yMax="360">
      <contour>
        <pt x="65" y="260" on="1"/>
        <pt x="65" y="360" on="1"/>
        <pt x="165" y="360" on="1"/>
        <pt x="165" y="260" on="1"/>
      </contour>
    </TTGlyph>
    <TTGlyph name="adieresis" xMin="65" yMin="260" xMax="165" yMax="360">
      <contour>
        <pt x="65" y="260" on="1"/>
        <pt x="65" y="360" on="1"/>
        <pt x="165" y="360" on="1"/>
        <pt x="165" y="260" on="1"/>
      </contour>
    </TTGlyph>
    <TTGlyph name="ae" xMin="65" yMin="260" xMax="165" yMax="360">
      <contour>
        <pt x="65" y="260" on="1"/>
        <pt x="65" y="360" on="1"/>
        <pt x="165" y="360" on="1"/>
        <pt x="165" y="260" on="1"/>
      </contour>
    </TTGlyph>
    <TTGlyph name="agrave" xMin="65" yMin="260" xMax="165" yMax="360">
      <contour>
        <pt x="65" y="260" on="1"/>
        <pt x="65" y="360" on="1"/>
        <pt x="165" y="360" on="1"/>
        <pt x="165" y="260" on="1"/>
      </contour>
    </TTGlyph>
    <TTGlyph name="ampersand" xMin="76" yMin="-200" xMax="171" yMax="-110">
      <contour>
        <pt x="171" y="-110" on="1"/>
        <pt x="171" y="-200" on="1"/>
        <pt x="76" y="-200" on="1"/>
        <pt x="76" y="-110" on="1"/>
      </contour>
    </TTGlyph>
    <TTGlyph name="approxequal" xMin="65" yMin="260" xMax="165" yMax="360">
      <contour>
        <pt x="65" y="260" on="1"/>
        <pt x="65" y="360" on="1"/>
        <pt x="165" y="360" on="1"/>
        <pt x="165" y="260" on="1"/>
      </contour>
    </TTGlyph>
    <TTGlyph name="aring" xMin="65" yMin="260" xMax="165" yMax="360">
      <contour>
        <pt x="65" y="260" on="1"/>
        <pt x="65" y="360" on="1"/>
        <pt x="165" y="360" on="1"/>
        <pt x="165" y="260" on="1"/>
      </contour>
    </TTGlyph>
    <TTGlyph name="asciicircum" xMin="30" yMin="-2" xMax="765" yMax="707">
      <contour>
        <pt x="450" y="427" on="1"/>
        <pt x="450" y="0" on="1"/>
        <pt x="365" y="0" on="1"/>
        <pt x="365" y="427" on="1"/>
        <pt x="180" y="427" on="1"/>
        <pt x="180" y="0" on="1"/>
        <pt x="95" y="0" on="1"/>
        <pt x="95" y="427" on="1"/>
        <pt x="30" y="427" on="1"/>
        <pt x="30" y="500" on="1"/>
        <pt x="95" y="500" on="1"/>
        <pt x="95" y="546" on="1"/>
        <pt x="95" y="617" on="0"/>
        <pt x="175" y="693" on="0"/>
        <pt x="270" y="693" on="1"/>
        <pt x="308" y="693" on="0"/>
        <pt x="373" y="683" on="0"/>
        <pt x="405" y="671" on="1"/>
        <pt x="425" y="688" on="0"/>
        <pt x="487" y="707" on="0"/>
        <pt x="532" y="707" on="1"/>
        <pt x="564" y="707" on="0"/>
        <pt x="611" y="702" on="0"/>
        <pt x="620" y="700" on="1"/>
        <pt x="705" y="700" on="1"/>
        <pt x="705" y="117" on="1"/>
        <pt x="705" y="91" on="0"/>
        <pt x="718" y="70" on="0"/>
        <pt x="738" y="70" on="1"/>
        <pt x="746" y="70" on="0"/>
        <pt x="761" y="74" on="0"/>
        <pt x="765" y="75" on="1"/>
        <pt x="765" y="5" on="1"/>
        <pt x="754" y="3" on="0"/>
        <pt x="725" y="-2" on="0"/>
        <pt x="705" y="-2" on="1"/>
        <pt x="690" y="-2" on="0"/>
        <pt x="660" y="8" on="0"/>
        <pt x="636" y="34" on="0"/>
        <pt x="620" y="78" on="0"/>
        <pt x="620" y="112" on="1"/>
        <pt x="620" y="631" on="1"/>
        <pt x="599" y="633" on="0"/>
        <pt x="560" y="637" on="0"/>
        <pt x="545" y="637" on="1"/>
        <pt x="514" y="637" on="0"/>
        <pt x="477" y="627" on="0"/>
        <pt x="457" y="609" on="0"/>
        <pt x="450" y="582" on="0"/>
        <pt x="450" y="565" on="1"/>
        <pt x="450" y="500" on="1"/>
        <pt x="546" y="500" on="1"/>
        <pt x="546" y="427" on="1"/>
      </contour>
      <contour>
        <pt x="365" y="558" on="1"/>
        <pt x="365" y="572" on="0"/>
        <pt x="367" y="599" on="0"/>
        <pt x="370" y="611" on="1"/>
        <pt x="344" y="618" on="0"/>
        <pt x="303" y="623" on="0"/>
        <pt x="283" y="623" on="1"/>
        <pt x="222" y="623" on="0"/>
        <pt x="180" y="587" on="0"/>
        <pt x="180" y="553" on="1"/>
        <pt x="180" y="500" on="1"/>
        <pt x="365" y="500" on="1"/>
        <pt x="365" y="558" on="1"/>
      </contour>
    </TTGlyph>
    <TTGlyph name="asciitilde" xMin="80" yMin="201" xMax="607" yMax="464">
      <contour>
        <pt x="359" y="201" on="1"/>
        <pt x="359" y="295" on="1"/>
        <pt x="80" y="295" on="1"/>
        <pt x="80" y="370" on="1"/>
        <pt x="359" y="370" on="1"/>
        <pt x="359" y="464" on="1"/>
        <pt x="607" y="333" on="1"/>
      </contour>
    </TTGlyph>
    <TTGlyph name="asterisk" xMin="35" yMin="598" xMax="428" yMax="745">
      <contour>
        <pt x="111" y="598" on="1"/>
        <pt x="35" y="598" on="1"/>
        <pt x="138" y="745" on="1"/>
        <pt x="258" y="745" on="1"/>
      </contour>
      <contour>
        <pt x="281" y="598" on="1"/>
        <pt x="205" y="598" on="1"/>
        <pt x="308" y="745" on="1"/>
        <pt x="428" y="745" on="1"/>
      </contour>
    </TTGlyph>
    <TTGlyph name="at" xMin="85" yMin="-7" xMax="715" yMax="707">
      <contour>
        <pt x="715" y="350" on="1"/>
        <pt x="715" y="267" on="0"/>
        <pt x="682" y="134" on="0"/>
        <pt x="609" y="42" on="0"/>
        <pt x="491" y="-7" on="0"/>
        <pt x="405" y="-7" on="1"/>
        <pt x="320" y="-7" on="0"/>
        <pt x="198" y="41" on="0"/>
        <pt x="121" y="133" on="0"/>
        <pt x="85" y="265" on="0"/>
        <pt x="85" y="350" on="1"/>
        <pt x="85" y="433" on="0"/>
        <pt x="121" y="565" on="0"/>
        <pt x="198" y="658" on="0"/>
        <pt x="319" y="707" on="0"/>
        <pt x="405" y="707" on="1"/>
        <pt x="491" y="707" on="0"/>
        <pt x="609" y="657" on="0"/>
        <pt x="683" y="565" on="0"/>
        <pt x="715" y="433" on="0"/>
      </contour>
      <contour>
        <pt x="638" y="350" on="1"/>
        <pt x="638" y="416" on="0"/>
        <pt x="619" y="523" on="0"/>
        <pt x="567" y="598" on="0"/>
        <pt x="476" y="639" on="0"/>
        <pt x="405" y="639" on="1"/>
        <pt x="334" y="639" on="0"/>
        <pt x="240" y="599" on="0"/>
        <pt x="185" y="524" on="0"/>
        <pt x="162" y="417" on="0"/>
        <pt x="162" y="350" on="1"/>
        <pt x="162" y="284" on="0"/>
        <pt x="185" y="177" on="0"/>
        <pt x="240" y="102" on="0"/>
        <pt x="334" y="61" on="0"/>
        <pt x="405" y="61" on="1"/>
        <pt x="476" y="61" on="0"/>
        <pt x="567" y="102" on="0"/>
        <pt x="619" y="177" on="0"/>
        <pt x="638" y="284" on="0"/>
      </contour>
      <contour>
        <pt x="466" y="427" on="1"/>
        <pt x="466" y="467" on="0"/>
        <pt x="447" y="501" on="0"/>
        <pt x="418" y="501" on="1"/>
        <pt x="407" y="501" on="0"/>
        <pt x="389" y="501" on="0"/>
        <pt x="383" y="500" on="1"/>
        <pt x="376" y="499" on="0"/>
        <pt x="371" y="499" on="1"/>
        <pt x="371" y="356" on="1"/>
        <pt x="418" y="356" on="1"/>
        <pt x="441" y="356" on="0"/>
        <pt x="466" y="382" on="0"/>
      </contour>
      <contour>
        <pt x="521" y="431" on="1"/>
        <pt x="521" y="374" on="0"/>
        <pt x="472" y="308" on="0"/>
        <pt x="419" y="308" on="1"/>
        <pt x="371" y="308" on="1"/>
        <pt x="371" y="159" on="1"/>
        <pt x="317" y="159" on="1"/>
        <pt x="317" y="544" on="1"/>
        <pt x="331" y="545" on="0"/>
        <pt x="347" y="546" on="1"/>
        <pt x="361" y="547" on="0"/>
        <pt x="394" y="547" on="0"/>
        <pt x="411" y="547" on="1"/>
        <pt x="443" y="547" on="0"/>
        <pt x="485" y="530" on="0"/>
        <pt x="510" y="499" on="0"/>
        <pt x="521" y="456" on="0"/>
      </contour>
    </TTGlyph>
    <TTGlyph name="atilde" xMin="65" yMin="260" xMax="165" yMax="360">
      <contour>
        <pt x="65" y="260" on="1"/>
        <pt x="65" y="360" on="1"/>
        <pt x="165" y="360" on="1"/>
        <pt x="165" y="260" on="1"/>
      </contour>
    </TTGlyph>
    <TTGlyph name="b" xMin="86" yMin="0" xMax="329" yMax="495">
      <contour>
        <pt x="94" y="0" on="1"/>
        <pt x="94" y="66" on="1"/>
        <pt x="182" y="66" on="1"/>
        <pt x="182" y="425" on="1"/>
        <pt x="86" y="386" on="1"/>
        <pt x="86" y="457" on="1"/>
        <pt x="174" y="495" on="1"/>
        <pt x="257" y="495" on="1"/>
        <pt x="257" y="66" on="1"/>
        <pt x="329" y="66" on="1"/>
        <pt x="329" y="0" on="1"/>
      </contour>
    </TTGlyph>
    <TTGlyph name="backslash" xMin="30" yMin="0" xMax="705" yMax="707">
      <contour>
        <pt x="684" y="617" on="1"/>
        <pt x="647" y="628" on="0"/>
        <pt x="572" y="637" on="0"/>
        <pt x="545" y="637" on="1"/>
        <pt x="514" y="637" on="0"/>
        <pt x="477" y="627" on="0"/>
        <pt x="457" y="609" on="0"/>
        <pt x="450" y="582" on="0"/>
        <pt x="450" y="565" on="1"/>
        <pt x="450" y="500" on="1"/>
        <pt x="705" y="500" on="1"/>
        <pt x="705" y="0" on="1"/>
        <pt x="620" y="0" on="1"/>
        <pt x="620" y="427" on="1"/>
        <pt x="450" y="427" on="1"/>
        <pt x="450" y="0" on="1"/>
        <pt x="365" y="0" on="1"/>
        <pt x="365" y="427" on="1"/>
        <pt x="180" y="427" on="1"/>
        <pt x="180" y="0" on="1"/>
        <pt x="95" y="0" on="1"/>
        <pt x="95" y="427" on="1"/>
        <pt x="30" y="427" on="1"/>
        <pt x="30" y="500" on="1"/>
        <pt x="95" y="500" on="1"/>
        <pt x="95" y="546" on="1"/>
        <pt x="95" y="617" on="0"/>
        <pt x="175" y="693" on="0"/>
        <pt x="270" y="693" on="1"/>
        <pt x="308" y="693" on="0"/>
        <pt x="373" y="683" on="0"/>
        <pt x="405" y="671" on="1"/>
        <pt x="425" y="688" on="0"/>
        <pt x="487" y="707" on="0"/>
        <pt x="532" y="707" on="1"/>
        <pt x="564" y="707" on="0"/>
        <pt x="644" y="696" on="0"/>
        <pt x="684" y="687" on="1"/>
      </contour>
      <contour>
        <pt x="365" y="558" on="1"/>
        <pt x="365" y="572" on="0"/>
        <pt x="367" y="599" on="0"/>
        <pt x="370" y="611" on="1"/>
        <pt x="344" y="618" on="0"/>
        <pt x="303" y="623" on="0"/>
        <pt x="283" y="623" on="1"/>
        <pt x="222" y="623" on="0"/>
        <pt x="180" y="587" on="0"/>
        <pt x="180" y="553" on="1"/>
        <pt x="180" y="500" on="1"/>
        <pt x="365" y="500" on="1"/>
        <pt x="365" y="558" on="1"/>
      </contour>
    </TTGlyph>
    <TTGlyph name="bar" xMin="61" yMin="158" xMax="396" yMax="508">
      <contour>
        <pt x="396" y="333" on="1"/>
        <pt x="61" y="158" on="1"/>
        <pt x="61" y="508" on="1"/>
      </contour>
    </TTGlyph>
    <TTGlyph name="braceleft" xMin="60" yMin="158" xMax="395" yMax="508">
      <contour>
        <pt x="60" y="333" on="1"/>
        <pt x="395" y="508" on="1"/>
        <pt x="395" y="158" on="1"/>
      </contour>
    </TTGlyph>
    <TTGlyph name="braceright" xMin="81" yMin="202" xMax="608" yMax="465">
      <contour>
        <pt x="329" y="465" on="1"/>
        <pt x="329" y="371" on="1"/>
        <pt x="608" y="371" on="1"/>
        <pt x="608" y="296" on="1"/>
        <pt x="329" y="296" on="1"/>
        <pt x="329" y="202" on="1"/>
        <pt x="81" y="333" on="1"/>
      </contour>
    </TTGlyph>
    <TTGlyph name="bracketleft" xMin="30" yMin="0" xMax="586" yMax="707">
      <contour>
        <pt x="450" y="427" on="1"/>
        <pt x="450" y="0" on="1"/>
        <pt x="365" y="0" on="1"/>
        <pt x="365" y="427" on="1"/>
        <pt x="180" y="427" on="1"/>
        <pt x="180" y="0" on="1"/>
        <pt x="95" y="0" on="1"/>
        <pt x="95" y="427" on="1"/>
        <pt x="30" y="427" on="1"/>
        <pt x="30" y="500" on="1"/>
        <pt x="95" y="500" on="1"/>
        <pt x="95" y="546" on="1"/>
        <pt x="95" y="617" on="0"/>
        <pt x="175" y="693" on="0"/>
        <pt x="270" y="693" on="1"/>
        <pt x="306" y="693" on="0"/>
        <pt x="367" y="684" on="0"/>
        <pt x="399" y="673" on="1"/>
        <pt x="432" y="707" on="0"/>
        <pt x="492" y="707" on="1"/>
        <pt x="524" y="707" on="0"/>
        <pt x="571" y="698" on="0"/>
        <pt x="586" y="695" on="1"/>
        <pt x="586" y="624" on="1"/>
        <pt x="570" y="628" on="0"/>
        <pt x="532" y="635" on="0"/>
        <pt x="505" y="635" on="1"/>
        <pt x="478" y="635" on="0"/>
        <pt x="450" y="607" on="0"/>
        <pt x="450" y="585" on="1"/>
        <pt x="450" y="500" on="1"/>
        <pt x="571" y="500" on="1"/>
        <pt x="571" y="427" on="1"/>
      </contour>
      <contour>
        <pt x="365" y="578" on="1"/>
        <pt x="365" y="596" on="0"/>
        <pt x="368" y="612" on="1"/>
        <pt x="342" y="618" on="0"/>
        <pt x="303" y="623" on="0"/>
        <pt x="283" y="623" on="1"/>
        <pt x="222" y="623" on="0"/>
        <pt x="180" y="587" on="0"/>
        <pt x="180" y="553" on="1"/>
        <pt x="180" y="500" on="1"/>
        <pt x="365" y="500" on="1"/>
        <pt x="365" y="578" on="1"/>
      </contour>
    </TTGlyph>
    <TTGlyph name="bracketright" xMin="30" yMin="-175" xMax="705" yMax="707">
      <contour>
        <pt x="684" y="617" on="1"/>
        <pt x="647" y="628" on="0"/>
        <pt x="572" y="637" on="0"/>
        <pt x="545" y="637" on="1"/>
        <pt x="514" y="637" on="0"/>
        <pt x="477" y="627" on="0"/>
        <pt x="457" y="609" on="0"/>
        <pt x="450" y="582" on="0"/>
        <pt x="450" y="565" on="1"/>
        <pt x="450" y="500" on="1"/>
        <pt x="705" y="500" on="1"/>
        <pt x="705" y="-43" on="1"/>
        <pt x="705" y="-71" on="0"/>
        <pt x="689" y="-119" on="0"/>
        <pt x="658" y="-155" on="0"/>
        <pt x="612" y="-175" on="0"/>
        <pt x="581" y="-175" on="1"/>
        <pt x="557" y="-175" on="0"/>
        <pt x="514" y="-172" on="0"/>
        <pt x="494" y="-170" on="1"/>
        <pt x="494" y="-99" on="1"/>
        <pt x="510" y="-101" on="0"/>
        <pt x="556" y="-103" on="0"/>
        <pt x="568" y="-103" on="1"/>
        <pt x="620" y="-103" on="0"/>
        <pt x="620" y="-48" on="1"/>
        <pt x="620" y="427" on="1"/>
        <pt x="450" y="427" on="1"/>
        <pt x="450" y="0" on="1"/>
        <pt x="365" y="0" on="1"/>
        <pt x="365" y="427" on="1"/>
        <pt x="180" y="427" on="1"/>
        <pt x="180" y="0" on="1"/>
        <pt x="95" y="0" on="1"/>
        <pt x="95" y="427" on="1"/>
        <pt x="30" y="427" on="1"/>
        <pt x="30" y="500" on="1"/>
        <pt x="95" y="500" on="1"/>
        <pt x="95" y="546" on="1"/>
        <pt x="95" y="617" on="0"/>
        <pt x="175" y="693" on="0"/>
        <pt x="270" y="693" on="1"/>
        <pt x="308" y="693" on="0"/>
        <pt x="373" y="683" on="0"/>
        <pt x="405" y="671" on="1"/>
        <pt x="425" y="688" on="0"/>
        <pt x="487" y="707" on="0"/>
        <pt x="532" y="707" on="1"/>
        <pt x="564" y="707" on="0"/>
        <pt x="644" y="696" on="0"/>
        <pt x="684" y="687" on="1"/>
      </contour>
      <contour>
        <pt x="365" y="558" on="1"/>
        <pt x="365" y="572" on="0"/>
        <pt x="367" y="599" on="0"/>
        <pt x="370" y="611" on="1"/>
        <pt x="344" y="618" on="0"/>
        <pt x="303" y="623" on="0"/>
        <pt x="283" y="623" on="1"/>
        <pt x="222" y="623" on="0"/>
        <pt x="180" y="587" on="0"/>
        <pt x="180" y="553" on="1"/>
        <pt x="180" y="500" on="1"/>
        <pt x="365" y="500" on="1"/>
        <pt x="365" y="558" on="1"/>
      </contour>
    </TTGlyph>
    <TTGlyph name="breve" xMin="65" yMin="260" xMax="165" yMax="360">
      <contour>
        <pt x="65" y="260" on="1"/>
        <pt x="65" y="360" on="1"/>
        <pt x="165" y="360" on="1"/>
        <pt x="165" y="260" on="1"/>
      </contour>
    </TTGlyph>
    <TTGlyph name="brokenbar" xMin="65" yMin="260" xMax="165" yMax="360">
      <contour>
        <pt x="65" y="260" on="1"/>
        <pt x="65" y="360" on="1"/>
        <pt x="165" y="360" on="1"/>
        <pt x="165" y="260" on="1"/>
      </contour>
    </TTGlyph>
    <TTGlyph name="bullet" xMin="65" yMin="260" xMax="165" yMax="360">
      <contour>
        <pt x="65" y="260" on="1"/>
        <pt x="65" y="360" on="1"/>
        <pt x="165" y="360" on="1"/>
        <pt x="165" y="260" on="1"/>
      </contour>
    </TTGlyph>
    <TTGlyph name="c" xMin="66" yMin="0" xMax="312" yMax="500">
      <contour>
        <pt x="66" y="0" on="1"/>
        <pt x="66" y="71" on="1"/>
        <pt x="178" y="228" on="1"/>
        <pt x="195" y="254" on="0"/>
        <pt x="216" y="289" on="0"/>
        <pt x="227" y="320" on="0"/>
        <pt x="231" y="352" on="0"/>
        <pt x="231" y="374" on="1"/>
        <pt x="231" y="403" on="0"/>
        <pt x="206" y="436" on="0"/>
        <pt x="171" y="436" on="1"/>
        <pt x="147" y="436" on="0"/>
        <pt x="97" y="429" on="0"/>
        <pt x="79" y="425" on="1"/>
        <pt x="79" y="489" on="1"/>
        <pt x="86" y="490" on="0"/>
        <pt x="141" y="500" on="0"/>
        <pt x="171" y="500" on="1"/>
        <pt x="305" y="500" on="0"/>
        <pt x="305" y="367" on="1"/>
        <pt x="305" y="343" on="0"/>
        <pt x="300" y="307" on="0"/>
        <pt x="286" y="271" on="0"/>
        <pt x="263" y="231" on="0"/>
        <pt x="246" y="205" on="1"/>
        <pt x="148" y="65" on="1"/>
        <pt x="312" y="65" on="1"/>
        <pt x="312" y="0" on="1"/>
      </contour>
    </TTGlyph>
    <TTGlyph name="caron" xMin="65" yMin="260" xMax="165" yMax="360">
      <contour>
        <pt x="65" y="260" on="1"/>
        <pt x="65" y="360" on="1"/>
        <pt x="165" y="360" on="1"/>
        <pt x="165" y="260" on="1"/>
      </contour>
    </TTGlyph>
    <TTGlyph name="ccedilla" xMin="65" yMin="260" xMax="165" yMax="360">
      <contour>
        <pt x="65" y="260" on="1"/>
        <pt x="65" y="360" on="1"/>
        <pt x="165" y="360" on="1"/>
        <pt x="165" y="260" on="1"/>
      </contour>
    </TTGlyph>
    <TTGlyph name="cedilla" xMin="65" yMin="260" xMax="165" yMax="360">
      <contour>
        <pt x="65" y="260" on="1"/>
        <pt x="65" y="360" on="1"/>
        <pt x="165" y="360" on="1"/>
        <pt x="165" y="260" on="1"/>
      </contour>
    </TTGlyph>
    <TTGlyph name="cent" xMin="65" yMin="260" xMax="165" yMax="360">
      <contour>
        <pt x="65" y="260" on="1"/>
        <pt x="65" y="360" on="1"/>
        <pt x="165" y="360" on="1"/>
        <pt x="165" y="260" on="1"/>
      </contour>
    </TTGlyph>
    <TTGlyph name="circumflex" xMin="65" yMin="260" xMax="165" yMax="360">
      <contour>
        <pt x="65" y="260" on="1"/>
        <pt x="65" y="360" on="1"/>
        <pt x="165" y="360" on="1"/>
        <pt x="165" y="260" on="1"/>
      </contour>
    </TTGlyph>
    <TTGlyph name="colon" xMin="65" yMin="260" xMax="165" yMax="360">
      <contour>
        <pt x="65" y="260" on="1"/>
        <pt x="65" y="360" on="1"/>
        <pt x="165" y="360" on="1"/>
        <pt x="165" y="260" on="1"/>
      </contour>
    </TTGlyph>
    <TTGlyph name="comma" xMin="35" yMin="579" xMax="348" yMax="714">
      <contour>
        <pt x="132" y="714" on="1"/>
        <pt x="192" y="630" on="1"/>
        <pt x="252" y="714" on="1"/>
        <pt x="348" y="714" on="1"/>
        <pt x="236" y="579" on="1"/>
        <pt x="148" y="579" on="1"/>
        <pt x="35" y="714" on="1"/>
      </contour>
    </TTGlyph>
    <TTGlyph name="copyright" xMin="65" yMin="260" xMax="165" yMax="360">
      <contour>
        <pt x="65" y="260" on="1"/>
        <pt x="65" y="360" on="1"/>
        <pt x="165" y="360" on="1"/>
        <pt x="165" y="260" on="1"/>
      </contour>
    </TTGlyph>
    <TTGlyph name="currency" xMin="32" yMin="47" xMax="538" yMax="553">
      <contour>
        <pt x="422" y="106" on="1"/>
        <pt x="394" y="85" on="0"/>
        <pt x="324" y="65" on="0"/>
        <pt x="285" y="65" on="1"/>
        <pt x="203" y="65" on="0"/>
        <pt x="147" y="106" on="1"/>
        <pt x="88" y="47" on="1"/>
        <pt x="32" y="103" on="1"/>
        <pt x="95" y="166" on="1"/>
        <pt x="81" y="192" on="0"/>
        <pt x="65" y="259" on="0"/>
        <pt x="65" y="300" on="1"/>
        <pt x="65" y="341" on="0"/>
        <pt x="81" y="407" on="0"/>
        <pt x="95" y="433" on="1"/>
        <pt x="32" y="497" on="1"/>
        <pt x="88" y="553" on="1"/>
        <pt x="147" y="494" on="1"/>
        <pt x="205" y="535" on="0"/>
        <pt x="285" y="535" on="1"/>
        <pt x="324" y="535" on="0"/>
        <pt x="394" y="514" on="0"/>
        <pt x="422" y="494" on="1"/>
        <pt x="482" y="553" on="1"/>
        <pt x="538" y="497" on="1"/>
        <pt x="475" y="433" on="1"/>
        <pt x="489" y="407" on="0"/>
        <pt x="505" y="341" on="0"/>
        <pt x="505" y="300" on="1"/>
        <pt x="505" y="259" on="0"/>
        <pt x="489" y="192" on="0"/>
        <pt x="475" y="166" on="1"/>
        <pt x="538" y="103" on="1"/>
        <pt x="482" y="47" on="1"/>
      </contour>
      <contour>
        <pt x="418" y="300" on="1"/>
        <pt x="418" y="341" on="0"/>
        <pt x="398" y="402" on="0"/>
        <pt x="362" y="444" on="0"/>
        <pt x="313" y="465" on="0"/>
        <pt x="285" y="465" on="1"/>
        <pt x="257" y="465" on="0"/>
        <pt x="208" y="444" on="0"/>
        <pt x="172" y="402" on="0"/>
        <pt x="152" y="341" on="0"/>
        <pt x="152" y="300" on="1"/>
        <pt x="152" y="260" on="0"/>
        <pt x="172" y="198" on="0"/>
        <pt x="208" y="156" on="0"/>
        <pt x="257" y="135" on="0"/>
        <pt x="285" y="135" on="1"/>
        <pt x="313" y="135" on="0"/>
        <pt x="362" y="156" on="0"/>
        <pt x="398" y="198" on="0"/>
        <pt x="418" y="260" on="0"/>
      </contour>
    </TTGlyph>
    <TTGlyph name="d" xMin="80" yMin="-5" xMax="312" yMax="500">
      <contour>
        <pt x="312" y="146" on="1"/>
        <pt x="312" y="62" on="0"/>
        <pt x="241" y="-5" on="0"/>
        <pt x="179" y="-5" on="1"/>
        <pt x="165" y="-5" on="0"/>
        <pt x="133" y="-2" on="0"/>
        <pt x="104" y="2" on="0"/>
        <pt x="83" y="5" on="0"/>
        <pt x="80" y="6" on="1"/>
        <pt x="80" y="70" on="1"/>
        <pt x="94" y="67" on="0"/>
        <pt x="149" y="58" on="0"/>
        <pt x="174" y="58" on="1"/>
        <pt x="203" y="58" on="0"/>
        <pt x="237" y="98" on="0"/>
        <pt x="237" y="138" on="1"/>
        <pt x="237" y="186" on="0"/>
        <pt x="213" y="233" on="0"/>
        <pt x="172" y="233" on="1"/>
        <pt x="115" y="233" on="1"/>
        <pt x="115" y="296" on="1"/>
        <pt x="165" y="296" on="1"/>
        <pt x="188" y="296" on="0"/>
        <pt x="214" y="312" on="0"/>
        <pt x="226" y="336" on="0"/>
        <pt x="229" y="363" on="0"/>
        <pt x="229" y="374" on="1"/>
        <pt x="229" y="413" on="0"/>
        <pt x="201" y="437" on="0"/>
        <pt x="172" y="437" on="1"/>
        <pt x="147" y="437" on="0"/>
        <pt x="101" y="429" on="0"/>
        <pt x="84" y="425" on="1"/>
        <pt x="84" y="489" on="1"/>
        <pt x="87" y="490" on="0"/>
        <pt x="106" y="493" on="0"/>
        <pt x="131" y="497" on="0"/>
        <pt x="161" y="500" on="0"/>
        <pt x="175" y="500" on="1"/>
        <pt x="204" y="500" on="0"/>
        <pt x="251" y="489" on="0"/>
        <pt x="285" y="459" on="0"/>
        <pt x="303" y="408" on="0"/>
        <pt x="303" y="367" on="1"/>
        <pt x="303" y="332" on="0"/>
        <pt x="275" y="278" on="0"/>
        <pt x="245" y="267" on="1"/>
        <pt x="277" y="260" on="0"/>
        <pt x="312" y="200" on="0"/>
      </contour>
    </TTGlyph>
    <TTGlyph name="dagger" xMin="65" yMin="260" xMax="165" yMax="360">
      <contour>
        <pt x="65" y="260" on="1"/>
        <pt x="65" y="360" on="1"/>
        <pt x="165" y="360" on="1"/>
        <pt x="165" y="260" on="1"/>
      </contour>
    </TTGlyph>
    <TTGlyph name="daggerdbl" xMin="65" yMin="260" xMax="165" yMax="360">
      <contour>
        <pt x="65" y="260" on="1"/>
        <pt x="65" y="360" on="1"/>
        <pt x="165" y="360" on="1"/>
        <pt x="165" y="260" on="1"/>
      </contour>
    </TTGlyph>
    <TTGlyph name="degree" xMin="65" yMin="260" xMax="165" yMax="360">
      <contour>
        <pt x="65" y="260" on="1"/>
        <pt x="65" y="360" on="1"/>
        <pt x="165" y="360" on="1"/>
        <pt x="165" y="260" on="1"/>
      </contour>
    </TTGlyph>
    <TTGlyph name="dieresis" xMin="65" yMin="260" xMax="165" yMax="360">
      <contour>
        <pt x="65" y="260" on="1"/>
        <pt x="65" y="360" on="1"/>
        <pt x="165" y="360" on="1"/>
        <pt x="165" y="260" on="1"/>
      </contour>
    </TTGlyph>
    <TTGlyph name="divide" xMin="65" yMin="260" xMax="165" yMax="360">
      <contour>
        <pt x="65" y="260" on="1"/>
        <pt x="65" y="360" on="1"/>
        <pt x="165" y="360" on="1"/>
        <pt x="165" y="260" on="1"/>
      </contour>
    </TTGlyph>
    <TTGlyph name="dollar" xMin="105" yMin="-110" xMax="185" yMax="810">
      <contour>
        <pt x="105" y="-110" on="1"/>
        <pt x="105" y="250" on="1"/>
        <pt x="185" y="250" on="1"/>
        <pt x="185" y="-110" on="1"/>
      </contour>
      <contour>
        <pt x="105" y="450" on="1"/>
        <pt x="105" y="810" on="1"/>
        <pt x="185" y="810" on="1"/>
        <pt x="185" y="450" on="1"/>
      </contour>
    </TTGlyph>
    <TTGlyph name="dotaccent" xMin="65" yMin="260" xMax="165" yMax="360">
      <contour>
        <pt x="65" y="260" on="1"/>
        <pt x="65" y="360" on="1"/>
        <pt x="165" y="360" on="1"/>
        <pt x="165" y="260" on="1"/>
      </contour>
    </TTGlyph>
    <TTGlyph name="dotlessi" xMin="65" yMin="260" xMax="165" yMax="360">
      <contour>
        <pt x="65" y="260" on="1"/>
        <pt x="65" y="360" on="1"/>
        <pt x="165" y="360" on="1"/>
        <pt x="165" y="260" on="1"/>
      </contour>
    </TTGlyph>
    <TTGlyph name="dotmath" xMin="65" yMin="260" xMax="165" yMax="360">
      <contour>
        <pt x="65" y="260" on="1"/>
        <pt x="65" y="360" on="1"/>
        <pt x="165" y="360" on="1"/>
        <pt x="165" y="260" on="1"/>
      </contour>
    </TTGlyph>
    <TTGlyph name="e" xMin="83" yMin="0" xMax="354" yMax="495">
      <contour>
        <pt x="304" y="117" on="1"/>
        <pt x="304" y="0" on="1"/>
        <pt x="230" y="0" on="1"/>
        <pt x="230" y="117" on="1"/>
        <pt x="83" y="117" on="1"/>
        <pt x="83" y="191" on="1"/>
        <pt x="157" y="495" on="1"/>
        <pt x="226" y="495" on="1"/>
        <pt x="153" y="181" on="1"/>
        <pt x="230" y="181" on="1"/>
        <pt x="237" y="324" on="1"/>
        <pt x="304" y="324" on="1"/>
        <pt x="304" y="181" on="1"/>
        <pt x="354" y="181" on="1"/>
        <pt x="354" y="117" on="1"/>
      </contour>
    </TTGlyph>
    <TTGlyph name="eacute" xMin="65" yMin="260" xMax="165" yMax="360">
      <contour>
        <pt x="65" y="260" on="1"/>
        <pt x="65" y="360" on="1"/>
        <pt x="165" y="360" on="1"/>
        <pt x="165" y="260" on="1"/>
      </contour>
    </TTGlyph>
    <TTGlyph name="ecircumflex" xMin="65" yMin="260" xMax="165" yMax="360">
      <contour>
        <pt x="65" y="260" on="1"/>
        <pt x="65" y="360" on="1"/>
        <pt x="165" y="360" on="1"/>
        <pt x="165" y="260" on="1"/>
      </contour>
    </TTGlyph>
    <TTGlyph name="edieresis" xMin="65" yMin="260" xMax="165" yMax="360">
      <contour>
        <pt x="65" y="260" on="1"/>
        <pt x="65" y="360" on="1"/>
        <pt x="165" y="360" on="1"/>
        <pt x="165" y="260" on="1"/>
      </contour>
    </TTGlyph>
    <TTGlyph name="egrave" xMin="65" yMin="260" xMax="165" yMax="360">
      <contour>
        <pt x="65" y="260" on="1"/>
        <pt x="65" y="360" on="1"/>
        <pt x="165" y="360" on="1"/>
        <pt x="165" y="260" on="1"/>
      </contour>
    </TTGlyph>
    <TTGlyph name="eight" xMin="65" yMin="260" xMax="165" yMax="360">
      <contour>
        <pt x="65" y="260" on="1"/>
        <pt x="65" y="360" on="1"/>
        <pt x="165" y="360" on="1"/>
        <pt x="165" y="260" on="1"/>
      </contour>
    </TTGlyph>
    <TTGlyph name="ellipsis" xMin="65" yMin="260" xMax="165" yMax="360">
      <contour>
        <pt x="65" y="260" on="1"/>
        <pt x="65" y="360" on="1"/>
        <pt x="165" y="360" on="1"/>
        <pt x="165" y="260" on="1"/>
      </contour>
    </TTGlyph>
    <TTGlyph name="emdash" xMin="65" yMin="260" xMax="165" yMax="360">
      <contour>
        <pt x="65" y="260" on="1"/>
        <pt x="65" y="360" on="1"/>
        <pt x="165" y="360" on="1"/>
        <pt x="165" y="260" on="1"/>
      </contour>
    </TTGlyph>
    <TTGlyph name="endash" xMin="65" yMin="260" xMax="165" yMax="360">
      <contour>
        <pt x="65" y="260" on="1"/>
        <pt x="65" y="360" on="1"/>
        <pt x="165" y="360" on="1"/>
        <pt x="165" y="260" on="1"/>
      </contour>
    </TTGlyph>
    <TTGlyph name="equal" xMin="85" yMin="70" xMax="465" yMax="555">
      <contour>
        <pt x="354" y="375" on="1"/>
        <pt x="276" y="250" on="1"/>
        <pt x="465" y="250" on="1"/>
        <pt x="465" y="175" on="1"/>
        <pt x="230" y="175" on="1"/>
        <pt x="165" y="70" on="1"/>
        <pt x="85" y="70" on="1"/>
        <pt x="150" y="175" on="1"/>
        <pt x="85" y="175" on="1"/>
        <pt x="85" y="250" on="1"/>
        <pt x="196" y="250" on="1"/>
        <pt x="274" y="375" on="1"/>
        <pt x="85" y="375" on="1"/>
        <pt x="85" y="450" on="1"/>
        <pt x="320" y="450" on="1"/>
        <pt x="385" y="555" on="1"/>
        <pt x="465" y="555" on="1"/>
        <pt x="400" y="450" on="1"/>
        <pt x="465" y="450" on="1"/>
        <pt x="465" y="375" on="1"/>
      </contour>
    </TTGlyph>
    <TTGlyph name="eth" xMin="65" yMin="260" xMax="165" yMax="360">
      <contour>
        <pt x="65" y="260" on="1"/>
        <pt x="65" y="360" on="1"/>
        <pt x="165" y="360" on="1"/>
        <pt x="165" y="260" on="1"/>
      </contour>
    </TTGlyph>
    <TTGlyph name="exclam" xMin="85" yMin="155" xMax="465" yMax="629">
      <contour>
        <pt x="85" y="155" on="1"/>
        <pt x="85" y="230" on="1"/>
        <pt x="465" y="230" on="1"/>
        <pt x="465" y="155" on="1"/>
      </contour>
      <contour>
        <pt x="85" y="355" on="1"/>
        <pt x="85" y="430" on="1"/>
        <pt x="465" y="430" on="1"/>
        <pt x="465" y="355" on="1"/>
      </contour>
      <contour>
        <pt x="85" y="596" on="1"/>
        <pt x="120" y="617" on="0"/>
        <pt x="175" y="629" on="0"/>
        <pt x="197" y="629" on="1"/>
        <pt x="217" y="629" on="0"/>
        <pt x="259" y="617" on="0"/>
        <pt x="301" y="602" on="0"/>
        <pt x="343" y="590" on="0"/>
        <pt x="362" y="590" on="1"/>
        <pt x="388" y="590" on="0"/>
        <pt x="444" y="612" on="0"/>
        <pt x="465" y="626" on="1"/>
        <pt x="465" y="548" on="1"/>
        <pt x="442" y="533" on="0"/>
        <pt x="381" y="515" on="0"/>
        <pt x="353" y="515" on="1"/>
        <pt x="332" y="515" on="0"/>
        <pt x="291" y="527" on="0"/>
        <pt x="250" y="542" on="0"/>
        <pt x="209" y="554" on="0"/>
        <pt x="188" y="554" on="1"/>
        <pt x="162" y="554" on="0"/>
        <pt x="106" y="532" on="0"/>
        <pt x="85" y="518" on="1"/>
      </contour>
    </TTGlyph>
    <TTGlyph name="exclamdown" xMin="65" yMin="260" xMax="165" yMax="360">
      <contour>
        <pt x="65" y="260" on="1"/>
        <pt x="65" y="360" on="1"/>
        <pt x="165" y="360" on="1"/>
        <pt x="165" y="260" on="1"/>
      </contour>
    </TTGlyph>
    <TTGlyph name="f" xMin="96" yMin="-5" xMax="323" yMax="495">
      <contour>
        <pt x="173" y="431" on="1"/>
        <pt x="173" y="306" on="1"/>
        <pt x="182" y="306" on="1"/>
        <pt x="223" y="306" on="0"/>
        <pt x="277" y="289" on="0"/>
        <pt x="309" y="252" on="0"/>
        <pt x="323" y="195" on="0"/>
        <pt x="323" y="154" on="1"/>
        <pt x="323" y="66" on="0"/>
        <pt x="252" y="-5" on="0"/>
        <pt x="190" y="-5" on="1"/>
        <pt x="161" y="-5" on="0"/>
        <pt x="113" y="3" on="0"/>
        <pt x="96" y="6" on="1"/>
        <pt x="96" y="70" on="1"/>
        <pt x="106" y="68" on="0"/>
        <pt x="158" y="59" on="0"/>
        <pt x="190" y="59" on="1"/>
        <pt x="223" y="59" on="0"/>
        <pt x="249" y="105" on="0"/>
        <pt x="249" y="146" on="1"/>
        <pt x="249" y="178" on="0"/>
        <pt x="242" y="216" on="0"/>
        <pt x="227" y="237" on="0"/>
        <pt x="202" y="243" on="0"/>
        <pt x="183" y="243" on="1"/>
        <pt x="103" y="243" on="1"/>
        <pt x="103" y="495" on="1"/>
        <pt x="302" y="495" on="1"/>
        <pt x="302" y="431" on="1"/>
      </contour>
    </TTGlyph>
    <TTGlyph name="fi" xMin="65" yMin="260" xMax="165" yMax="360">
      <contour>
        <pt x="65" y="260" on="1"/>
        <pt x="65" y="360" on="1"/>
        <pt x="165" y="360" on="1"/>
        <pt x="165" y="260" on="1"/>
      </contour>
    </TTGlyph>
    <TTGlyph name="five" xMin="65" yMin="260" xMax="165" yMax="360">
      <contour>
        <pt x="65" y="260" on="1"/>
        <pt x="65" y="360" on="1"/>
        <pt x="165" y="360" on="1"/>
        <pt x="165" y="260" on="1"/>
      </contour>
    </TTGlyph>
    <TTGlyph name="fl" xMin="65" yMin="260" xMax="165" yMax="360">
      <contour>
        <pt x="65" y="260" on="1"/>
        <pt x="65" y="360" on="1"/>
        <pt x="165" y="360" on="1"/>
        <pt x="165" y="260" on="1"/>
      </contour>
    </TTGlyph>
    <TTGlyph name="florin" xMin="65" yMin="260" xMax="165" yMax="360">
      <contour>
        <pt x="65" y="260" on="1"/>
        <pt x="65" y="360" on="1"/>
        <pt x="165" y="360" on="1"/>
        <pt x="165" y="260" on="1"/>
      </contour>
    </TTGlyph>
    <TTGlyph name="four" xMin="65" yMin="260" xMax="165" yMax="360">
      <contour>
        <pt x="65" y="260" on="1"/>
        <pt x="65" y="360" on="1"/>
        <pt x="165" y="360" on="1"/>
        <pt x="165" y="260" on="1"/>
      </contour>
    </TTGlyph>
    <TTGlyph name="fraction" xMin="65" yMin="260" xMax="165" yMax="360">
      <contour>
        <pt x="65" y="260" on="1"/>
        <pt x="65" y="360" on="1"/>
        <pt x="165" y="360" on="1"/>
        <pt x="165" y="260" on="1"/>
      </contour>
    </TTGlyph>
    <TTGlyph name="g" xMin="70" yMin="-5" xMax="338" yMax="500">
      <contour>
        <pt x="338" y="158" on="1"/>
        <pt x="338" y="114" on="0"/>
        <pt x="317" y="52" on="0"/>
        <pt x="281" y="13" on="0"/>
        <pt x="232" y="-5" on="0"/>
        <pt x="203" y="-5" on="1"/>
        <pt x="168" y="-5" on="0"/>
        <pt x="118" y="17" on="0"/>
        <pt x="85" y="78" on="0"/>
        <pt x="70" y="186" on="0"/>
        <pt x="70" y="272" on="1"/>
        <pt x="70" y="344" on="0"/>
        <pt x="95" y="433" on="0"/>
        <pt x="140" y="482" on="0"/>
        <pt x="201" y="500" on="0"/>
        <pt x="236" y="500" on="1"/>
        <pt x="253" y="500" on="0"/>
        <pt x="298" y="493" on="0"/>
        <pt x="308" y="491" on="1"/>
        <pt x="308" y="427" on="1"/>
        <pt x="293" y="431" on="0"/>
        <pt x="255" y="438" on="0"/>
        <pt x="231" y="438" on="1"/>
        <pt x="211" y="438" on="0"/>
        <pt x="181" y="428" on="0"/>
        <pt x="159" y="399" on="0"/>
        <pt x="147" y="346" on="0"/>
        <pt x="145" y="303" on="1"/>
        <pt x="156" y="311" on="0"/>
        <pt x="191" y="324" on="0"/>
        <pt x="217" y="324" on="1"/>
        <pt x="255" y="324" on="0"/>
        <pt x="302" y="301" on="0"/>
        <pt x="329" y="259" on="0"/>
        <pt x="338" y="197" on="0"/>
      </contour>
      <contour>
        <pt x="212" y="262" on="1"/>
        <pt x="187" y="262" on="0"/>
        <pt x="152" y="249" on="0"/>
        <pt x="144" y="244" on="1"/>
        <pt x="144" y="182" on="0"/>
        <pt x="150" y="109" on="0"/>
        <pt x="163" y="70" on="0"/>
        <pt x="186" y="59" on="0"/>
        <pt x="202" y="59" on="1"/>
        <pt x="238" y="59" on="0"/>
        <pt x="264" y="107" on="0"/>
        <pt x="264" y="152" on="1"/>
        <pt x="264" y="184" on="0"/>
        <pt x="261" y="226" on="0"/>
        <pt x="250" y="251" on="0"/>
        <pt x="230" y="262" on="0"/>
      </contour>
    </TTGlyph>
    <TTGlyph name="germandbls" xMin="65" yMin="260" xMax="165" yMax="360">
      <contour>
        <pt x="65" y="260" on="1"/>
        <pt x="65" y="360" on="1"/>
        <pt x="165" y="360" on="1"/>
        <pt x="165" y="260" on="1"/>
      </contour>
    </TTGlyph>
    <TTGlyph name="grave" xMin="70" yMin="235" xMax="220" yMax="390">
      <contour>
        <pt x="70" y="235" on="1"/>
        <pt x="70" y="390" on="1"/>
        <pt x="220" y="390" on="1"/>
        <pt x="220" y="235" on="1"/>
      </contour>
    </TTGlyph>
    <TTGlyph name="greater" xMin="85" yMin="0" xMax="465" yMax="564">
      <contour>
        <pt x="85" y="125" on="1"/>
        <pt x="85" y="219" on="1"/>
        <pt x="393" y="336" on="1"/>
        <pt x="85" y="472" on="1"/>
        <pt x="85" y="564" on="1"/>
        <pt x="465" y="385" on="1"/>
        <pt x="465" y="280" on="1"/>
      </contour>
      <contour>
        <pt x="85" y="0" on="1"/>
        <pt x="85" y="75" on="1"/>
        <pt x="465" y="75" on="1"/>
        <pt x="465" y="0" on="1"/>
      </contour>
    </TTGlyph>
    <TTGlyph name="greaterequal" xMin="65" yMin="260" xMax="165" yMax="360">
      <contour>
        <pt x="65" y="260" on="1"/>
        <pt x="65" y="360" on="1"/>
        <pt x="165" y="360" on="1"/>
        <pt x="165" y="260" on="1"/>
      </contour>
    </TTGlyph>
    <TTGlyph name="guillemotleft" xMin="65" yMin="260" xMax="165" yMax="360">
      <contour>
        <pt x="65" y="260" on="1"/>
        <pt x="65" y="360" on="1"/>
        <pt x="165" y="360" on="1"/>
        <pt x="165" y="260" on="1"/>
      </contour>
    </TTGlyph>
    <TTGlyph name="guillemotright" xMin="65" yMin="260" xMax="165" yMax="360">
      <contour>
        <pt x="65" y="260" on="1"/>
        <pt x="65" y="360" on="1"/>
        <pt x="165" y="360" on="1"/>
        <pt x="165" y="260" on="1"/>
      </contour>
    </TTGlyph>
    <TTGlyph name="guilsinglleft" xMin="65" yMin="260" xMax="165" yMax="360">
      <contour>
        <pt x="65" y="260" on="1"/>
        <pt x="65" y="360" on="1"/>
        <pt x="165" y="360" on="1"/>
        <pt x="165" y="260" on="1"/>
      </contour>
    </TTGlyph>
    <TTGlyph name="guilsinglright" xMin="65" yMin="260" xMax="165" yMax="360">
      <contour>
        <pt x="65" y="260" on="1"/>
        <pt x="65" y="360" on="1"/>
        <pt x="165" y="360" on="1"/>
        <pt x="165" y="260" on="1"/>
      </contour>
    </TTGlyph>
    <TTGlyph name="h" xMin="80" yMin="0" xMax="309" yMax="495">
      <contour>
        <pt x="191" y="0" on="1"/>
        <pt x="117" y="0" on="1"/>
        <pt x="239" y="430" on="1"/>
        <pt x="80" y="430" on="1"/>
        <pt x="80" y="495" on="1"/>
        <pt x="309" y="495" on="1"/>
        <pt x="309" y="414" on="1"/>
      </contour>
    </TTGlyph>
    <TTGlyph name="hungarumlaut" xMin="65" yMin="260" xMax="165" yMax="360">
      <contour>
        <pt x="65" y="260" on="1"/>
        <pt x="65" y="360" on="1"/>
        <pt x="165" y="360" on="1"/>
        <pt x="165" y="260" on="1"/>
      </contour>
    </TTGlyph>
    <TTGlyph name="hyphen" xMin="85" yMin="275" xMax="410" yMax="350">
      <contour>
        <pt x="85" y="275" on="1"/>
        <pt x="85" y="350" on="1"/>
        <pt x="410" y="350" on="1"/>
        <pt x="410" y="275" on="1"/>
      </contour>
    </TTGlyph>
    <TTGlyph name="i" xMin="58" yMin="-5" xMax="352" yMax="500">
      <contour>
        <pt x="278" y="129" on="1"/>
        <pt x="278" y="154" on="0"/>
        <pt x="273" y="192" on="0"/>
        <pt x="253" y="217" on="0"/>
        <pt x="213" y="230" on="0"/>
        <pt x="179" y="230" on="1"/>
        <pt x="164" y="221" on="0"/>
        <pt x="146" y="204" on="0"/>
        <pt x="136" y="181" on="0"/>
        <pt x="133" y="150" on="0"/>
        <pt x="133" y="128" on="1"/>
        <pt x="133" y="85" on="0"/>
        <pt x="173" y="57" on="0"/>
        <pt x="205" y="57" on="1"/>
        <pt x="237" y="57" on="0"/>
        <pt x="278" y="85" on="0"/>
      </contour>
      <contour>
        <pt x="269" y="371" on="1"/>
        <pt x="269" y="438" on="0"/>
        <pt x="205" y="438" on="1"/>
        <pt x="141" y="438" on="0"/>
        <pt x="141" y="371" on="1"/>
        <pt x="141" y="345" on="0"/>
        <pt x="147" y="312" on="0"/>
        <pt x="166" y="293" on="0"/>
        <pt x="200" y="286" on="0"/>
        <pt x="227" y="286" on="1"/>
        <pt x="254" y="297" on="0"/>
        <pt x="269" y="339" on="0"/>
      </contour>
      <contour>
        <pt x="352" y="137" on="1"/>
        <pt x="352" y="66" on="0"/>
        <pt x="281" y="-5" on="0"/>
        <pt x="205" y="-5" on="1"/>
        <pt x="129" y="-5" on="0"/>
        <pt x="58" y="66" on="0"/>
        <pt x="58" y="137" on="1"/>
        <pt x="58" y="161" on="0"/>
        <pt x="70" y="197" on="0"/>
        <pt x="88" y="224" on="0"/>
        <pt x="111" y="243" on="0"/>
        <pt x="123" y="251" on="1"/>
        <pt x="96" y="264" on="0"/>
        <pt x="68" y="325" on="0"/>
        <pt x="68" y="364" on="1"/>
        <pt x="68" y="433" on="0"/>
        <pt x="147" y="500" on="0"/>
        <pt x="205" y="500" on="1"/>
        <pt x="234" y="500" on="0"/>
        <pt x="283" y="484" on="0"/>
        <pt x="321" y="451" on="0"/>
        <pt x="342" y="400" on="0"/>
        <pt x="342" y="364" on="1"/>
        <pt x="342" y="336" on="0"/>
        <pt x="318" y="286" on="0"/>
        <pt x="283" y="266" on="1"/>
        <pt x="320" y="257" on="0"/>
        <pt x="352" y="185" on="0"/>
      </contour>
    </TTGlyph>
    <TTGlyph name="iacute" xMin="65" yMin="260" xMax="165" yMax="360">
      <contour>
        <pt x="65" y="260" on="1"/>
        <pt x="65" y="360" on="1"/>
        <pt x="165" y="360" on="1"/>
        <pt x="165" y="260" on="1"/>
      </contour>
    </TTGlyph>
    <TTGlyph name="icircumflex" xMin="65" yMin="260" xMax="165" yMax="360">
      <contour>
        <pt x="65" y="260" on="1"/>
        <pt x="65" y="360" on="1"/>
        <pt x="165" y="360" on="1"/>
        <pt x="165" y="260" on="1"/>
      </contour>
    </TTGlyph>
    <TTGlyph name="idieresis" xMin="65" yMin="260" xMax="165" yMax="360">
      <contour>
        <pt x="65" y="260" on="1"/>
        <pt x="65" y="360" on="1"/>
        <pt x="165" y="360" on="1"/>
        <pt x="165" y="260" on="1"/>
      </contour>
    </TTGlyph>
    <TTGlyph name="igrave" xMin="65" yMin="260" xMax="165" yMax="360">
      <contour>
        <pt x="65" y="260" on="1"/>
        <pt x="65" y="360" on="1"/>
        <pt x="165" y="360" on="1"/>
        <pt x="165" y="260" on="1"/>
      </contour>
    </TTGlyph>
    <TTGlyph name="infinity" xMin="65" yMin="260" xMax="165" yMax="360">
      <contour>
        <pt x="65" y="260" on="1"/>
        <pt x="65" y="360" on="1"/>
        <pt x="165" y="360" on="1"/>
        <pt x="165" y="260" on="1"/>
      </contour>
    </TTGlyph>
    <TTGlyph name="integral" xMin="65" yMin="260" xMax="165" yMax="360">
      <contour>
        <pt x="65" y="260" on="1"/>
        <pt x="65" y="360" on="1"/>
        <pt x="165" y="360" on="1"/>
        <pt x="165" y="260" on="1"/>
      </contour>
    </TTGlyph>
    <TTGlyph name="j" xMin="100" yMin="-4" xMax="368" yMax="501">
      <contour>
        <pt x="100" y="338" on="1"/>
        <pt x="100" y="382" on="0"/>
        <pt x="122" y="444" on="0"/>
        <pt x="159" y="483" on="0"/>
        <pt x="208" y="501" on="0"/>
        <pt x="235" y="501" on="1"/>
        <pt x="271" y="501" on="0"/>
        <pt x="321" y="479" on="0"/>
        <pt x="353" y="418" on="0"/>
        <pt x="368" y="310" on="0"/>
        <pt x="368" y="224" on="1"/>
        <pt x="368" y="152" on="0"/>
        <pt x="343" y="63" on="0"/>
        <pt x="299" y="14" on="0"/>
        <pt x="239" y="-4" on="0"/>
        <pt x="204" y="-4" on="1"/>
        <pt x="187" y="-4" on="0"/>
        <pt x="145" y="1" on="0"/>
        <pt x="135" y="3" on="1"/>
        <pt x="135" y="67" on="1"/>
        <pt x="150" y="63" on="0"/>
        <pt x="185" y="58" on="0"/>
        <pt x="209" y="58" on="1"/>
        <pt x="229" y="58" on="0"/>
        <pt x="258" y="68" on="0"/>
        <pt x="279" y="97" on="0"/>
        <pt x="291" y="150" on="0"/>
        <pt x="293" y="193" on="1"/>
        <pt x="281" y="185" on="0"/>
        <pt x="246" y="172" on="0"/>
        <pt x="221" y="172" on="1"/>
        <pt x="183" y="172" on="0"/>
        <pt x="136" y="195" on="0"/>
        <pt x="109" y="237" on="0"/>
        <pt x="100" y="299" on="0"/>
      </contour>
      <contour>
        <pt x="226" y="234" on="1"/>
        <pt x="251" y="234" on="0"/>
        <pt x="285" y="247" on="0"/>
        <pt x="294" y="252" on="1"/>
        <pt x="294" y="314" on="0"/>
        <pt x="288" y="387" on="0"/>
        <pt x="274" y="425" on="0"/>
        <pt x="253" y="437" on="0"/>
        <pt x="236" y="437" on="1"/>
        <pt x="200" y="437" on="0"/>
        <pt x="174" y="389" on="0"/>
        <pt x="174" y="344" on="1"/>
        <pt x="174" y="313" on="0"/>
        <pt x="177" y="270" on="0"/>
        <pt x="188" y="245" on="0"/>
        <pt x="208" y="234" on="0"/>
      </contour>
    </TTGlyph>
    <TTGlyph name="k" xMin="85" yMin="275" xMax="465" yMax="350">
      <contour>
        <pt x="85" y="275" on="1"/>
        <pt x="85" y="350" on="1"/>
        <pt x="465" y="350" on="1"/>
        <pt x="465" y="275" on="1"/>
      </contour>
    </TTGlyph>
    <TTGlyph name="l" xMin="45" yMin="-2" xMax="509" yMax="500">
      <contour>
        <pt x="419" y="427" on="1"/>
        <pt x="419" y="117" on="1"/>
        <pt x="419" y="91" on="0"/>
        <pt x="432" y="70" on="0"/>
        <pt x="452" y="70" on="1"/>
        <pt x="460" y="70" on="0"/>
        <pt x="475" y="74" on="0"/>
        <pt x="479" y="75" on="1"/>
        <pt x="479" y="5" on="1"/>
        <pt x="468" y="3" on="0"/>
        <pt x="439" y="-2" on="0"/>
        <pt x="419" y="-2" on="1"/>
        <pt x="404" y="-2" on="0"/>
        <pt x="374" y="8" on="0"/>
        <pt x="350" y="34" on="0"/>
        <pt x="334" y="78" on="0"/>
        <pt x="334" y="112" on="1"/>
        <pt x="334" y="427" on="1"/>
        <pt x="209" y="427" on="1"/>
        <pt x="209" y="0" on="1"/>
        <pt x="124" y="0" on="1"/>
        <pt x="124" y="427" on="1"/>
        <pt x="45" y="427" on="1"/>
        <pt x="45" y="500" on="1"/>
        <pt x="509" y="500" on="1"/>
        <pt x="509" y="427" on="1"/>
      </contour>
    </TTGlyph>
    <TTGlyph name="less" xMin="85" yMin="0" xMax="465" yMax="564">
      <contour>
        <pt x="85" y="280" on="1"/>
        <pt x="85" y="385" on="1"/>
        <pt x="465" y="564" on="1"/>
        <pt x="465" y="472" on="1"/>
        <pt x="157" y="336" on="1"/>
        <pt x="465" y="219" on="1"/>
        <pt x="465" y="125" on="1"/>
      </contour>
      <contour>
        <pt x="85" y="0" on="1"/>
        <pt x="85" y="75" on="1"/>
        <pt x="465" y="75" on="1"/>
        <pt x="465" y="0" on="1"/>
      </contour>
    </TTGlyph>
    <TTGlyph name="lessequal" xMin="65" yMin="260" xMax="165" yMax="360">
      <contour>
        <pt x="65" y="260" on="1"/>
        <pt x="65" y="360" on="1"/>
        <pt x="165" y="360" on="1"/>
        <pt x="165" y="260" on="1"/>
      </contour>
    </TTGlyph>
    <TTGlyph name="logicaland" xMin="65" yMin="260" xMax="165" yMax="360">
      <contour>
        <pt x="65" y="260" on="1"/>
        <pt x="65" y="360" on="1"/>
        <pt x="165" y="360" on="1"/>
        <pt x="165" y="260" on="1"/>
      </contour>
    </TTGlyph>
    <TTGlyph name="logicalnot" xMin="65" yMin="260" xMax="165" yMax="360">
      <contour>
        <pt x="65" y="260" on="1"/>
        <pt x="65" y="360" on="1"/>
        <pt x="165" y="360" on="1"/>
        <pt x="165" y="260" on="1"/>
      </contour>
    </TTGlyph>
    <TTGlyph name="lozenge" xMin="65" yMin="260" xMax="165" yMax="360">
      <contour>
        <pt x="65" y="260" on="1"/>
        <pt x="65" y="360" on="1"/>
        <pt x="165" y="360" on="1"/>
        <pt x="165" y="260" on="1"/>
      </contour>
    </TTGlyph>
    <TTGlyph name="lslash" xMin="65" yMin="260" xMax="165" yMax="360">
      <contour>
        <pt x="65" y="260" on="1"/>
        <pt x="65" y="360" on="1"/>
        <pt x="165" y="360" on="1"/>
        <pt x="165" y="260" on="1"/>
      </contour>
    </TTGlyph>
    <TTGlyph name="m" xMin="58" yMin="-7" xMax="407" yMax="707">
      <contour>
        <pt x="58" y="213" on="1"/>
        <pt x="58" y="265" on="0"/>
        <pt x="70" y="350" on="0"/>
        <pt x="104" y="411" on="0"/>
        <pt x="166" y="444" on="0"/>
        <pt x="216" y="444" on="1"/>
        <pt x="253" y="444" on="0"/>
        <pt x="305" y="424" on="0"/>
        <pt x="321" y="413" on="1"/>
        <pt x="320" y="487" on="0"/>
        <pt x="305" y="576" on="0"/>
        <pt x="277" y="623" on="0"/>
        <pt x="236" y="637" on="0"/>
        <pt x="209" y="637" on="1"/>
        <pt x="177" y="637" on="0"/>
        <pt x="123" y="626" on="0"/>
        <pt x="103" y="621" on="1"/>
        <pt x="103" y="692" on="1"/>
        <pt x="109" y="694" on="0"/>
        <pt x="132" y="699" on="0"/>
        <pt x="159" y="704" on="0"/>
        <pt x="187" y="707" on="0"/>
        <pt x="199" y="707" on="1"/>
        <pt x="246" y="707" on="0"/>
        <pt x="323" y="683" on="0"/>
        <pt x="377" y="613" on="0"/>
        <pt x="407" y="487" on="0"/>
        <pt x="407" y="384" on="1"/>
        <pt x="407" y="259" on="0"/>
        <pt x="387" y="106" on="0"/>
        <pt x="344" y="22" on="0"/>
        <pt x="277" y="-7" on="0"/>
        <pt x="230" y="-7" on="1"/>
        <pt x="197" y="-7" on="0"/>
        <pt x="135" y="11" on="0"/>
        <pt x="87" y="60" on="0"/>
        <pt x="58" y="146" on="0"/>
      </contour>
      <contour>
        <pt x="223" y="372" on="1"/>
        <pt x="196" y="372" on="0"/>
        <pt x="164" y="352" on="0"/>
        <pt x="148" y="310" on="0"/>
        <pt x="143" y="248" on="0"/>
        <pt x="143" y="206" on="1"/>
        <pt x="143" y="135" on="0"/>
        <pt x="183" y="65" on="0"/>
        <pt x="236" y="65" on="1"/>
        <pt x="258" y="65" on="0"/>
        <pt x="290" y="84" on="0"/>
        <pt x="311" y="143" on="0"/>
        <pt x="321" y="253" on="0"/>
        <pt x="322" y="345" on="1"/>
        <pt x="312" y="350" on="0"/>
        <pt x="261" y="372" on="0"/>
      </contour>
    </TTGlyph>
    <TTGlyph name="macron" xMin="65" yMin="260" xMax="165" yMax="360">
      <contour>
        <pt x="65" y="260" on="1"/>
        <pt x="65" y="360" on="1"/>
        <pt x="165" y="360" on="1"/>
        <pt x="165" y="260" on="1"/>
      </contour>
    </TTGlyph>
    <TTGlyph name="minus" xMin="65" yMin="260" xMax="165" yMax="360">
      <contour>
        <pt x="65" y="260" on="1"/>
        <pt x="65" y="360" on="1"/>
        <pt x="165" y="360" on="1"/>
        <pt x="165" y="260" on="1"/>
      </contour>
    </TTGlyph>
    <TTGlyph name="mu" xMin="65" yMin="260" xMax="165" yMax="360">
      <contour>
        <pt x="65" y="260" on="1"/>
        <pt x="65" y="360" on="1"/>
        <pt x="165" y="360" on="1"/>
        <pt x="165" y="260" on="1"/>
      </contour>
    </TTGlyph>
    <TTGlyph name="multiply" xMin="65" yMin="260" xMax="165" yMax="360">
      <contour>
        <pt x="65" y="260" on="1"/>
        <pt x="65" y="360" on="1"/>
        <pt x="165" y="360" on="1"/>
        <pt x="165" y="260" on="1"/>
      </contour>
    </TTGlyph>
    <TTGlyph name="n" xMin="-20" yMin="-240" xMax="340" yMax="825">
      <contour>
        <pt x="-20" y="-159" on="1"/>
        <pt x="-4" y="-163" on="0"/>
        <pt x="34" y="-168" on="0"/>
        <pt x="61" y="-168" on="1"/>
        <pt x="88" y="-168" on="0"/>
        <pt x="116" y="-142" on="0"/>
        <pt x="116" y="-120" on="1"/>
        <pt x="116" y="698" on="1"/>
        <pt x="116" y="763" on="0"/>
        <pt x="186" y="825" on="0"/>
        <pt x="243" y="825" on="1"/>
        <pt x="275" y="825" on="0"/>
        <pt x="325" y="818" on="0"/>
        <pt x="340" y="815" on="1"/>
        <pt x="340" y="744" on="1"/>
        <pt x="324" y="748" on="0"/>
        <pt x="283" y="753" on="0"/>
        <pt x="256" y="753" on="1"/>
        <pt x="229" y="753" on="0"/>
        <pt x="201" y="727" on="0"/>
        <pt x="201" y="705" on="1"/>
        <pt x="201" y="-113" on="1"/>
        <pt x="201" y="-178" on="0"/>
        <pt x="131" y="-240" on="0"/>
        <pt x="74" y="-240" on="1"/>
        <pt x="42" y="-240" on="0"/>
        <pt x="-5" y="-233" on="0"/>
        <pt x="-20" y="-230" on="1"/>
      </contour>
    </TTGlyph>
    <TTGlyph name="nine" xMin="65" yMin="260" xMax="165" yMax="360">
      <contour>
        <pt x="65" y="260" on="1"/>
        <pt x="65" y="360" on="1"/>
        <pt x="165" y="360" on="1"/>
        <pt x="165" y="260" on="1"/>
      </contour>
    </TTGlyph>
    <TTGlyph name="notequal" xMin="65" yMin="260" xMax="165" yMax="360">
      <contour>
        <pt x="65" y="260" on="1"/>
        <pt x="65" y="360" on="1"/>
        <pt x="165" y="360" on="1"/>
        <pt x="165" y="260" on="1"/>
      </contour>
    </TTGlyph>
    <TTGlyph name="ntilde" xMin="65" yMin="260" xMax="165" yMax="360">
      <contour>
        <pt x="65" y="260" on="1"/>
        <pt x="65" y="360" on="1"/>
        <pt x="165" y="360" on="1"/>
        <pt x="165" y="260" on="1"/>
      </contour>
    </TTGlyph>
    <TTGlyph name="numbersign" xMin="25" yMin="0" xMax="485" yMax="700">
      <contour>
        <pt x="25" y="0" on="1"/>
        <pt x="203" y="700" on="1"/>
        <pt x="314" y="700" on="1"/>
        <pt x="485" y="0" on="1"/>
      </contour>
      <contour>
        <pt x="258" y="625" on="1"/>
        <pt x="133" y="75" on="1"/>
        <pt x="377" y="75" on="1"/>
      </contour>
    </TTGlyph>
    <TTGlyph name="o" xMin="58" yMin="128" xMax="483" yMax="620">
      <contour>
        <pt x="314" y="258" on="1"/>
        <pt x="483" y="393" on="1"/>
        <pt x="483" y="291" on="1"/>
        <pt x="271" y="128" on="1"/>
        <pt x="58" y="291" on="1"/>
        <pt x="58" y="393" on="1"/>
        <pt x="228" y="257" on="1"/>
        <pt x="228" y="620" on="1"/>
        <pt x="314" y="620" on="1"/>
      </contour>
    </TTGlyph>
    <TTGlyph name="oacute" xMin="65" yMin="260" xMax="165" yMax="360">
      <contour>
        <pt x="65" y="260" on="1"/>
        <pt x="65" y="360" on="1"/>
        <pt x="165" y="360" on="1"/>
        <pt x="165" y="260" on="1"/>
      </contour>
    </TTGlyph>
    <TTGlyph name="ocircumflex" xMin="65" yMin="260" xMax="165" yMax="360">
      <contour>
        <pt x="65" y="260" on="1"/>
        <pt x="65" y="360" on="1"/>
        <pt x="165" y="360" on="1"/>
        <pt x="165" y="260" on="1"/>
      </contour>
    </TTGlyph>
    <TTGlyph name="odieresis" xMin="65" yMin="260" xMax="165" yMax="360">
      <contour>
        <pt x="65" y="260" on="1"/>
        <pt x="65" y="360" on="1"/>
        <pt x="165" y="360" on="1"/>
        <pt x="165" y="260" on="1"/>
      </contour>
    </TTGlyph>
    <TTGlyph name="oe" xMin="65" yMin="260" xMax="165" yMax="360">
      <contour>
        <pt x="65" y="260" on="1"/>
        <pt x="65" y="360" on="1"/>
        <pt x="165" y="360" on="1"/>
        <pt x="165" y="260" on="1"/>
      </contour>
    </TTGlyph>
    <TTGlyph name="ogonek" xMin="65" yMin="260" xMax="165" yMax="360">
      <contour>
        <pt x="65" y="260" on="1"/>
        <pt x="65" y="360" on="1"/>
        <pt x="165" y="360" on="1"/>
        <pt x="165" y="260" on="1"/>
      </contour>
    </TTGlyph>
    <TTGlyph name="ograve" xMin="65" yMin="260" xMax="165" yMax="360">
      <contour>
        <pt x="65" y="260" on="1"/>
        <pt x="65" y="360" on="1"/>
        <pt x="165" y="360" on="1"/>
        <pt x="165" y="260" on="1"/>
      </contour>
    </TTGlyph>
    <TTGlyph name="one" xMin="65" yMin="260" xMax="165" yMax="360">
      <contour>
        <pt x="65" y="260" on="1"/>
        <pt x="65" y="360" on="1"/>
        <pt x="165" y="360" on="1"/>
        <pt x="165" y="260" on="1"/>
      </contour>
    </TTGlyph>
    <TTGlyph name="onehalf" xMin="65" yMin="260" xMax="165" yMax="360">
      <contour>
        <pt x="65" y="260" on="1"/>
        <pt x="65" y="360" on="1"/>
        <pt x="165" y="360" on="1"/>
        <pt x="165" y="260" on="1"/>
      </contour>
    </TTGlyph>
    <TTGlyph name="onequarter" xMin="65" yMin="260" xMax="165" yMax="360">
      <contour>
        <pt x="65" y="260" on="1"/>
        <pt x="65" y="360" on="1"/>
        <pt x="165" y="360" on="1"/>
        <pt x="165" y="260" on="1"/>
      </contour>
    </TTGlyph>
    <TTGlyph name="onesuperior" xMin="65" yMin="260" xMax="165" yMax="360">
      <contour>
        <pt x="65" y="260" on="1"/>
        <pt x="65" y="360" on="1"/>
        <pt x="165" y="360" on="1"/>
        <pt x="165" y="260" on="1"/>
      </contour>
    </TTGlyph>
    <TTGlyph name="ordfeminine" xMin="65" yMin="260" xMax="165" yMax="360">
      <contour>
        <pt x="65" y="260" on="1"/>
        <pt x="65" y="360" on="1"/>
        <pt x="165" y="360" on="1"/>
        <pt x="165" y="260" on="1"/>
      </contour>
    </TTGlyph>
    <TTGlyph name="ordmasculine" xMin="65" yMin="260" xMax="165" yMax="360">
      <contour>
        <pt x="65" y="260" on="1"/>
        <pt x="65" y="360" on="1"/>
        <pt x="165" y="360" on="1"/>
        <pt x="165" y="260" on="1"/>
      </contour>
    </TTGlyph>
    <TTGlyph name="oslash" xMin="65" yMin="260" xMax="165" yMax="360">
      <contour>
        <pt x="65" y="260" on="1"/>
        <pt x="65" y="360" on="1"/>
        <pt x="165" y="360" on="1"/>
        <pt x="165" y="260" on="1"/>
      </contour>
    </TTGlyph>
    <TTGlyph name="otilde" xMin="65" yMin="260" xMax="165" yMax="360">
      <contour>
        <pt x="65" y="260" on="1"/>
        <pt x="65" y="360" on="1"/>
        <pt x="165" y="360" on="1"/>
        <pt x="165" y="260" on="1"/>
      </contour>
    </TTGlyph>
    <TTGlyph name="p" xMin="29" yMin="158" xMax="521" yMax="583">
      <contour>
        <pt x="162" y="329" on="1"/>
        <pt x="297" y="158" on="1"/>
        <pt x="192" y="158" on="1"/>
        <pt x="29" y="370" on="1"/>
        <pt x="192" y="583" on="1"/>
        <pt x="297" y="583" on="1"/>
        <pt x="161" y="411" on="1"/>
        <pt x="521" y="411" on="1"/>
        <pt x="521" y="329" on="1"/>
      </contour>
    </TTGlyph>
    <TTGlyph name="paragraph" xMin="55" yMin="0" xMax="440" yMax="707">
      <contour>
        <pt x="360" y="0" on="1"/>
        <pt x="360" y="700" on="1"/>
        <pt x="440" y="700" on="1"/>
        <pt x="440" y="0" on="1"/>
      </contour>
      <contour>
        <pt x="305" y="0" on="1"/>
        <pt x="222" y="0" on="1"/>
        <pt x="222" y="374" on="1"/>
        <pt x="198" y="374" on="1"/>
        <pt x="171" y="374" on="0"/>
        <pt x="120" y="387" on="0"/>
        <pt x="80" y="424" on="0"/>
        <pt x="55" y="490" on="0"/>
        <pt x="55" y="543" on="1"/>
        <pt x="55" y="588" on="0"/>
        <pt x="81" y="651" on="0"/>
        <pt x="123" y="690" on="0"/>
        <pt x="177" y="707" on="0"/>
        <pt x="205" y="707" on="1"/>
        <pt x="248" y="707" on="0"/>
        <pt x="275" y="704" on="1"/>
        <pt x="291" y="702" on="0"/>
        <pt x="305" y="700" on="1"/>
        <pt x="305" y="633" on="1"/>
        <pt x="285" y="637" on="0"/>
        <pt x="249" y="640" on="0"/>
        <pt x="234" y="640" on="1"/>
        <pt x="178" y="640" on="0"/>
        <pt x="131" y="595" on="0"/>
        <pt x="131" y="541" on="1"/>
        <pt x="131" y="495" on="0"/>
        <pt x="159" y="442" on="0"/>
        <pt x="203" y="442" on="1"/>
        <pt x="305" y="442" on="1"/>
      </contour>
    </TTGlyph>
    <TTGlyph name="parenleft" xMin="75" yMin="610" xMax="170" yMax="700">
      <contour>
        <pt x="75" y="610" on="1"/>
        <pt x="75" y="700" on="1"/>
        <pt x="170" y="700" on="1"/>
        <pt x="170" y="610" on="1"/>
      </contour>
    </TTGlyph>
    <TTGlyph name="parenright" xMin="35" yMin="543" xMax="225" yMax="747">
      <contour>
        <pt x="167" y="646" on="1"/>
        <pt x="167" y="666" on="0"/>
        <pt x="152" y="695" on="0"/>
        <pt x="129" y="695" on="1"/>
        <pt x="107" y="695" on="0"/>
        <pt x="92" y="664" on="0"/>
        <pt x="92" y="646" on="1"/>
        <pt x="92" y="629" on="0"/>
        <pt x="107" y="597" on="0"/>
        <pt x="129" y="597" on="1"/>
        <pt x="154" y="597" on="0"/>
        <pt x="167" y="627" on="0"/>
      </contour>
      <contour>
        <pt x="225" y="645" on="1"/>
        <pt x="225" y="601" on="0"/>
        <pt x="173" y="543" on="0"/>
        <pt x="129" y="543" on="1"/>
        <pt x="85" y="543" on="0"/>
        <pt x="35" y="602" on="0"/>
        <pt x="35" y="645" on="1"/>
        <pt x="35" y="689" on="0"/>
        <pt x="85" y="747" on="0"/>
        <pt x="129" y="747" on="1"/>
        <pt x="174" y="747" on="0"/>
        <pt x="225" y="690" on="0"/>
      </contour>
    </TTGlyph>
    <TTGlyph name="partialdiff" xMin="65" yMin="260" xMax="165" yMax="360">
      <contour>
        <pt x="65" y="260" on="1"/>
        <pt x="65" y="360" on="1"/>
        <pt x="165" y="360" on="1"/>
        <pt x="165" y="260" on="1"/>
      </contour>
    </TTGlyph>
    <TTGlyph name="percent" xMin="40" yMin="0" xMax="430" yMax="700">
      <contour>
        <pt x="290" y="0" on="1"/>
        <pt x="178" y="0" on="1"/>
        <pt x="40" y="350" on="1"/>
        <pt x="180" y="700" on="1"/>
        <pt x="290" y="700" on="1"/>
        <pt x="430" y="350" on="1"/>
      </contour>
      <contour>
        <pt x="235" y="630" on="1"/>
        <pt x="127" y="350" on="1"/>
        <pt x="235" y="70" on="1"/>
        <pt x="343" y="350" on="1"/>
      </contour>
    </TTGlyph>
    <TTGlyph name="period" xMin="80" yMin="0" xMax="165" yMax="500">
      <contour>
        <pt x="80" y="0" on="1"/>
        <pt x="80" y="500" on="1"/>
        <pt x="165" y="500" on="1"/>
        <pt x="165" y="0" on="1"/>
      </contour>
    </TTGlyph>
    <TTGlyph name="periodcentered" xMin="65" yMin="260" xMax="165" yMax="360">
      <contour>
        <pt x="65" y="260" on="1"/>
        <pt x="65" y="360" on="1"/>
        <pt x="165" y="360" on="1"/>
        <pt x="165" y="260" on="1"/>
      </contour>
    </TTGlyph>
    <TTGlyph name="perthousand" xMin="65" yMin="260" xMax="165" yMax="360">
      <contour>
        <pt x="65" y="260" on="1"/>
        <pt x="65" y="360" on="1"/>
        <pt x="165" y="360" on="1"/>
        <pt x="165" y="260" on="1"/>
      </contour>
    </TTGlyph>
    <TTGlyph name="pi" xMin="65" yMin="260" xMax="165" yMax="360">
      <contour>
        <pt x="65" y="260" on="1"/>
        <pt x="65" y="360" on="1"/>
        <pt x="165" y="360" on="1"/>
        <pt x="165" y="260" on="1"/>
      </contour>
    </TTGlyph>
    <TTGlyph name="plus" xMin="65" yMin="-180" xMax="254" yMax="60">
      <contour>
        <pt x="254" y="-170" on="1"/>
        <pt x="240" y="-174" on="0"/>
        <pt x="197" y="-180" on="0"/>
        <pt x="179" y="-180" on="1"/>
        <pt x="147" y="-180" on="0"/>
        <pt x="104" y="-169" on="0"/>
        <pt x="77" y="-143" on="0"/>
        <pt x="65" y="-101" on="0"/>
        <pt x="65" y="-70" on="1"/>
        <pt x="65" y="-33" on="0"/>
        <pt x="100" y="39" on="0"/>
        <pt x="119" y="60" on="1"/>
        <pt x="188" y="60" on="1"/>
        <pt x="168" y="30" on="0"/>
        <pt x="144" y="-45" on="0"/>
        <pt x="144" y="-69" on="1"/>
        <pt x="144" y="-95" on="0"/>
        <pt x="165" y="-112" on="0"/>
        <pt x="188" y="-112" on="1"/>
        <pt x="199" y="-112" on="0"/>
        <pt x="240" y="-107" on="0"/>
        <pt x="254" y="-105" on="1"/>
      </contour>
    </TTGlyph>
    <TTGlyph name="plusminus" xMin="65" yMin="260" xMax="165" yMax="360">
      <contour>
        <pt x="65" y="260" on="1"/>
        <pt x="65" y="360" on="1"/>
        <pt x="165" y="360" on="1"/>
        <pt x="165" y="260" on="1"/>
      </contour>
    </TTGlyph>
    <TTGlyph name="product" xMin="65" yMin="260" xMax="165" yMax="360">
      <contour>
        <pt x="65" y="260" on="1"/>
        <pt x="65" y="360" on="1"/>
        <pt x="165" y="360" on="1"/>
        <pt x="165" y="260" on="1"/>
      </contour>
    </TTGlyph>
    <TTGlyph name="q" xMin="71" yMin="161" xMax="484" yMax="574">
      <contour>
        <pt x="386" y="318" on="1"/>
        <pt x="411" y="534" on="1"/>
        <pt x="484" y="461" on="1"/>
        <pt x="449" y="196" on="1"/>
        <pt x="183" y="161" on="1"/>
        <pt x="110" y="234" on="1"/>
        <pt x="327" y="258" on="1"/>
        <pt x="71" y="514" on="1"/>
        <pt x="131" y="574" on="1"/>
      </contour>
    </TTGlyph>
    <TTGlyph name="question" xMin="32" yMin="47" xMax="538" yMax="553">
      <contour>
        <pt x="422" y="106" on="1"/>
        <pt x="394" y="85" on="0"/>
        <pt x="324" y="65" on="0"/>
        <pt x="285" y="65" on="1"/>
        <pt x="203" y="65" on="0"/>
        <pt x="147" y="106" on="1"/>
        <pt x="88" y="47" on="1"/>
        <pt x="32" y="103" on="1"/>
        <pt x="95" y="166" on="1"/>
        <pt x="81" y="192" on="0"/>
        <pt x="65" y="259" on="0"/>
        <pt x="65" y="300" on="1"/>
        <pt x="65" y="341" on="0"/>
        <pt x="81" y="407" on="0"/>
        <pt x="95" y="433" on="1"/>
        <pt x="32" y="497" on="1"/>
        <pt x="88" y="553" on="1"/>
        <pt x="147" y="494" on="1"/>
        <pt x="205" y="535" on="0"/>
        <pt x="285" y="535" on="1"/>
        <pt x="324" y="535" on="0"/>
        <pt x="394" y="514" on="0"/>
        <pt x="422" y="494" on="1"/>
        <pt x="482" y="553" on="1"/>
        <pt x="538" y="497" on="1"/>
        <pt x="475" y="433" on="1"/>
        <pt x="489" y="407" on="0"/>
        <pt x="505" y="341" on="0"/>
        <pt x="505" y="300" on="1"/>
        <pt x="505" y="259" on="0"/>
        <pt x="489" y="192" on="0"/>
        <pt x="475" y="166" on="1"/>
        <pt x="538" y="103" on="1"/>
        <pt x="482" y="47" on="1"/>
      </contour>
      <contour>
        <pt x="418" y="300" on="1"/>
        <pt x="418" y="341" on="0"/>
        <pt x="398" y="402" on="0"/>
        <pt x="362" y="444" on="0"/>
        <pt x="313" y="465" on="0"/>
        <pt x="285" y="465" on="1"/>
        <pt x="257" y="465" on="0"/>
        <pt x="208" y="444" on="0"/>
        <pt x="172" y="402" on="0"/>
        <pt x="152" y="341" on="0"/>
        <pt x="152" y="300" on="1"/>
        <pt x="152" y="260" on="0"/>
        <pt x="172" y="198" on="0"/>
        <pt x="208" y="156" on="0"/>
        <pt x="257" y="135" on="0"/>
        <pt x="285" y="135" on="1"/>
        <pt x="313" y="135" on="0"/>
        <pt x="362" y="156" on="0"/>
        <pt x="398" y="198" on="0"/>
        <pt x="418" y="260" on="0"/>
      </contour>
    </TTGlyph>
    <TTGlyph name="questiondown" xMin="65" yMin="260" xMax="165" yMax="360">
      <contour>
        <pt x="65" y="260" on="1"/>
        <pt x="65" y="360" on="1"/>
        <pt x="165" y="360" on="1"/>
        <pt x="165" y="260" on="1"/>
      </contour>
    </TTGlyph>
    <TTGlyph name="quotedbl" xMin="85" yMin="169" xMax="425" yMax="453">
      <contour>
        <pt x="85" y="250" on="1"/>
        <pt x="120" y="271" on="0"/>
        <pt x="165" y="283" on="0"/>
        <pt x="187" y="283" on="1"/>
        <pt x="207" y="283" on="0"/>
        <pt x="243" y="271" on="0"/>
        <pt x="278" y="256" on="0"/>
        <pt x="313" y="244" on="0"/>
        <pt x="332" y="244" on="1"/>
        <pt x="358" y="244" on="0"/>
        <pt x="404" y="266" on="0"/>
        <pt x="425" y="280" on="1"/>
        <pt x="425" y="202" on="1"/>
        <pt x="402" y="187" on="0"/>
        <pt x="351" y="169" on="0"/>
        <pt x="323" y="169" on="1"/>
        <pt x="302" y="169" on="0"/>
        <pt x="267" y="181" on="0"/>
        <pt x="234" y="196" on="0"/>
        <pt x="199" y="208" on="0"/>
        <pt x="178" y="208" on="1"/>
        <pt x="152" y="208" on="0"/>
        <pt x="106" y="186" on="0"/>
        <pt x="85" y="172" on="1"/>
      </contour>
      <contour>
        <pt x="85" y="420" on="1"/>
        <pt x="120" y="441" on="0"/>
        <pt x="165" y="453" on="0"/>
        <pt x="187" y="453" on="1"/>
        <pt x="207" y="453" on="0"/>
        <pt x="243" y="441" on="0"/>
        <pt x="278" y="426" on="0"/>
        <pt x="313" y="414" on="0"/>
        <pt x="332" y="414" on="1"/>
        <pt x="358" y="414" on="0"/>
        <pt x="404" y="436" on="0"/>
        <pt x="425" y="450" on="1"/>
        <pt x="425" y="372" on="1"/>
        <pt x="402" y="357" on="0"/>
        <pt x="351" y="339" on="0"/>
        <pt x="323" y="339" on="1"/>
        <pt x="302" y="339" on="0"/>
        <pt x="267" y="351" on="0"/>
        <pt x="234" y="366" on="0"/>
        <pt x="199" y="378" on="0"/>
        <pt x="178" y="378" on="1"/>
        <pt x="152" y="378" on="0"/>
        <pt x="106" y="356" on="0"/>
        <pt x="85" y="342" on="1"/>
      </contour>
    </TTGlyph>
    <TTGlyph name="quotedblbase" xMin="65" yMin="260" xMax="165" yMax="360">
      <contour>
        <pt x="65" y="260" on="1"/>
        <pt x="65" y="360" on="1"/>
        <pt x="165" y="360" on="1"/>
        <pt x="165" y="260" on="1"/>
      </contour>
    </TTGlyph>
    <TTGlyph name="quotedblleft" xMin="65" yMin="260" xMax="165" yMax="360">
      <contour>
        <pt x="65" y="260" on="1"/>
        <pt x="65" y="360" on="1"/>
        <pt x="165" y="360" on="1"/>
        <pt x="165" y="260" on="1"/>
      </contour>
    </TTGlyph>
    <TTGlyph name="quotedblright" xMin="65" yMin="260" xMax="165" yMax="360">
      <contour>
        <pt x="65" y="260" on="1"/>
        <pt x="65" y="360" on="1"/>
        <pt x="165" y="360" on="1"/>
        <pt x="165" y="260" on="1"/>
      </contour>
    </TTGlyph>
    <TTGlyph name="quoteleft" xMin="65" yMin="260" xMax="165" yMax="360">
      <contour>
        <pt x="65" y="260" on="1"/>
        <pt x="65" y="360" on="1"/>
        <pt x="165" y="360" on="1"/>
        <pt x="165" y="260" on="1"/>
      </contour>
    </TTGlyph>
    <TTGlyph name="quoteright" xMin="65" yMin="260" xMax="165" yMax="360">
      <contour>
        <pt x="65" y="260" on="1"/>
        <pt x="65" y="360" on="1"/>
        <pt x="165" y="360" on="1"/>
        <pt x="165" y="260" on="1"/>
      </contour>
    </TTGlyph>
    <TTGlyph name="quotesinglbase" xMin="65" yMin="260" xMax="165" yMax="360">
      <contour>
        <pt x="65" y="260" on="1"/>
        <pt x="65" y="360" on="1"/>
        <pt x="165" y="360" on="1"/>
        <pt x="165" y="260" on="1"/>
      </contour>
    </TTGlyph>
    <TTGlyph name="quotesingle" xMin="65" yMin="260" xMax="165" yMax="360">
      <contour>
        <pt x="65" y="260" on="1"/>
        <pt x="65" y="360" on="1"/>
        <pt x="165" y="360" on="1"/>
        <pt x="165" y="260" on="1"/>
      </contour>
    </TTGlyph>
    <TTGlyph name="r" xMin="72" yMin="167" xMax="485" yMax="580">
      <contour>
        <pt x="229" y="265" on="1"/>
        <pt x="445" y="240" on="1"/>
        <pt x="372" y="167" on="1"/>
        <pt x="107" y="202" on="1"/>
        <pt x="72" y="468" on="1"/>
        <pt x="145" y="541" on="1"/>
        <pt x="169" y="324" on="1"/>
        <pt x="425" y="580" on="1"/>
        <pt x="485" y="520" on="1"/>
      </contour>
    </TTGlyph>
    <TTGlyph name="radical" xMin="65" yMin="260" xMax="165" yMax="360">
      <contour>
        <pt x="65" y="260" on="1"/>
        <pt x="65" y="360" on="1"/>
        <pt x="165" y="360" on="1"/>
        <pt x="165" y="260" on="1"/>
      </contour>
    </TTGlyph>
    <TTGlyph name="registered" xMin="65" yMin="260" xMax="165" yMax="360">
      <contour>
        <pt x="65" y="260" on="1"/>
        <pt x="65" y="360" on="1"/>
        <pt x="165" y="360" on="1"/>
        <pt x="165" y="260" on="1"/>
      </contour>
    </TTGlyph>
    <TTGlyph name="ring" xMin="65" yMin="260" xMax="165" yMax="360">
      <contour>
        <pt x="65" y="260" on="1"/>
        <pt x="65" y="360" on="1"/>
        <pt x="165" y="360" on="1"/>
        <pt x="165" y="260" on="1"/>
      </contour>
    </TTGlyph>
    <TTGlyph name="s" xMin="90" yMin="0" xMax="690" yMax="700">
      <contour>
        <pt x="90" y="0" on="1"/>
        <pt x="90" y="700" on="1"/>
        <pt x="690" y="700" on="1"/>
        <pt x="690" y="0" on="1"/>
      </contour>
    </TTGlyph>
    <TTGlyph name="scaron" xMin="65" yMin="260" xMax="165" yMax="360">
      <contour>
        <pt x="65" y="260" on="1"/>
        <pt x="65" y="360" on="1"/>
        <pt x="165" y="360" on="1"/>
        <pt x="165" y="260" on="1"/>
      </contour>
    </TTGlyph>
    <TTGlyph name="section" xMin="65" yMin="260" xMax="165" yMax="360">
      <contour>
        <pt x="65" y="260" on="1"/>
        <pt x="65" y="360" on="1"/>
        <pt x="165" y="360" on="1"/>
        <pt x="165" y="260" on="1"/>
      </contour>
    </TTGlyph>
    <TTGlyph name="semicolon" xMin="65" yMin="260" xMax="165" yMax="360">
      <contour>
        <pt x="65" y="260" on="1"/>
        <pt x="65" y="360" on="1"/>
        <pt x="165" y="360" on="1"/>
        <pt x="165" y="260" on="1"/>
      </contour>
    </TTGlyph>
    <TTGlyph name="seven" xMin="65" yMin="260" xMax="165" yMax="360">
      <contour>
        <pt x="65" y="260" on="1"/>
        <pt x="65" y="360" on="1"/>
        <pt x="165" y="360" on="1"/>
        <pt x="165" y="260" on="1"/>
      </contour>
    </TTGlyph>
    <TTGlyph name="six" xMin="65" yMin="260" xMax="165" yMax="360">
      <contour>
        <pt x="65" y="260" on="1"/>
        <pt x="65" y="360" on="1"/>
        <pt x="165" y="360" on="1"/>
        <pt x="165" y="260" on="1"/>
      </contour>
    </TTGlyph>
    <TTGlyph name="slash" xMin="-85" yMin="-100" xMax="315" yMax="810">
      <contour>
        <pt x="-5" y="-100" on="1"/>
        <pt x="-85" y="-100" on="1"/>
        <pt x="235" y="810" on="1"/>
        <pt x="315" y="810" on="1"/>
      </contour>
    </TTGlyph>
    <TTGlyph name="sterling" xMin="65" yMin="260" xMax="165" yMax="360">
      <contour>
        <pt x="65" y="260" on="1"/>
        <pt x="65" y="360" on="1"/>
        <pt x="165" y="360" on="1"/>
        <pt x="165" y="260" on="1"/>
      </contour>
    </TTGlyph>
    <TTGlyph name="summation" xMin="65" yMin="260" xMax="165" yMax="360">
      <contour>
        <pt x="65" y="260" on="1"/>
        <pt x="65" y="360" on="1"/>
        <pt x="165" y="360" on="1"/>
        <pt x="165" y="260" on="1"/>
      </contour>
    </TTGlyph>
    <TTGlyph name="t" xMin="90" yMin="-170" xMax="690" yMax="850">
      <contour>
        <pt x="90" y="-170" on="1"/>
        <pt x="90" y="850" on="1"/>
        <pt x="690" y="850" on="1"/>
        <pt x="690" y="-170" on="1"/>
      </contour>
    </TTGlyph>
    <TTGlyph name="thorn" xMin="65" yMin="260" xMax="165" yMax="360">
      <contour>
        <pt x="65" y="260" on="1"/>
        <pt x="65" y="360" on="1"/>
        <pt x="165" y="360" on="1"/>
        <pt x="165" y="260" on="1"/>
      </contour>
    </TTGlyph>
    <TTGlyph name="three" xMin="65" yMin="260" xMax="165" yMax="360">
      <contour>
        <pt x="65" y="260" on="1"/>
        <pt x="65" y="360" on="1"/>
        <pt x="165" y="360" on="1"/>
        <pt x="165" y="260" on="1"/>
      </contour>
    </TTGlyph>
    <TTGlyph name="threequarters" xMin="65" yMin="260" xMax="165" yMax="360">
      <contour>
        <pt x="65" y="260" on="1"/>
        <pt x="65" y="360" on="1"/>
        <pt x="165" y="360" on="1"/>
        <pt x="165" y="260" on="1"/>
      </contour>
    </TTGlyph>
    <TTGlyph name="threesuperior" xMin="65" yMin="260" xMax="165" yMax="360">
      <contour>
        <pt x="65" y="260" on="1"/>
        <pt x="65" y="360" on="1"/>
        <pt x="165" y="360" on="1"/>
        <pt x="165" y="260" on="1"/>
      </contour>
    </TTGlyph>
    <TTGlyph name="tilde" xMin="65" yMin="260" xMax="165" yMax="360">
      <contour>
        <pt x="65" y="260" on="1"/>
        <pt x="65" y="360" on="1"/>
        <pt x="165" y="360" on="1"/>
        <pt x="165" y="260" on="1"/>
      </contour>
    </TTGlyph>
    <TTGlyph name="trademark" xMin="65" yMin="260" xMax="165" yMax="360">
      <contour>
        <pt x="65" y="260" on="1"/>
        <pt x="65" y="360" on="1"/>
        <pt x="165" y="360" on="1"/>
        <pt x="165" y="260" on="1"/>
      </contour>
    </TTGlyph>
    <TTGlyph name="two" xMin="65" yMin="260" xMax="165" yMax="360">
      <contour>
        <pt x="65" y="260" on="1"/>
        <pt x="65" y="360" on="1"/>
        <pt x="165" y="360" on="1"/>
        <pt x="165" y="260" on="1"/>
      </contour>
    </TTGlyph>
    <TTGlyph name="twosuperior" xMin="65" yMin="260" xMax="165" yMax="360">
      <contour>
        <pt x="65" y="260" on="1"/>
        <pt x="65" y="360" on="1"/>
        <pt x="165" y="360" on="1"/>
        <pt x="165" y="260" on="1"/>
      </contour>
    </TTGlyph>
    <TTGlyph name="u" xMin="70" yMin="-7" xMax="428" yMax="750">
      <contour>
        <pt x="239" y="556" on="1"/>
        <pt x="157" y="556" on="1"/>
        <pt x="201" y="632" on="1"/>
        <pt x="182" y="634" on="0"/>
        <pt x="139" y="635" on="0"/>
        <pt x="114" y="637" on="1"/>
        <pt x="114" y="707" on="1"/>
        <pt x="149" y="705" on="0"/>
        <pt x="211" y="702" on="0"/>
        <pt x="239" y="697" on="1"/>
        <pt x="270" y="750" on="1"/>
        <pt x="352" y="750" on="1"/>
        <pt x="310" y="678" on="1"/>
        <pt x="339" y="666" on="0"/>
        <pt x="383" y="623" on="0"/>
        <pt x="413" y="554" on="0"/>
        <pt x="428" y="457" on="0"/>
        <pt x="428" y="389" on="1"/>
        <pt x="428" y="265" on="0"/>
        <pt x="410" y="111" on="0"/>
        <pt x="368" y="24" on="0"/>
        <pt x="298" y="-7" on="0"/>
        <pt x="246" y="-7" on="1"/>
        <pt x="209" y="-7" on="0"/>
        <pt x="144" y="16" on="0"/>
        <pt x="97" y="69" on="0"/>
        <pt x="70" y="156" on="0"/>
        <pt x="70" y="220" on="1"/>
        <pt x="70" y="274" on="0"/>
        <pt x="81" y="364" on="0"/>
        <pt x="116" y="428" on="0"/>
        <pt x="180" y="464" on="0"/>
        <pt x="232" y="464" on="1"/>
        <pt x="269" y="464" on="0"/>
        <pt x="324" y="444" on="0"/>
        <pt x="341" y="433" on="1"/>
        <pt x="337" y="515" on="0"/>
        <pt x="305" y="597" on="0"/>
        <pt x="272" y="614" on="1"/>
      </contour>
      <contour>
        <pt x="239" y="392" on="1"/>
        <pt x="212" y="392" on="0"/>
        <pt x="179" y="367" on="0"/>
        <pt x="161" y="320" on="0"/>
        <pt x="155" y="253" on="0"/>
        <pt x="155" y="211" on="1"/>
        <pt x="155" y="140" on="0"/>
        <pt x="194" y="65" on="0"/>
        <pt x="252" y="65" on="1"/>
        <pt x="275" y="65" on="0"/>
        <pt x="308" y="85" on="0"/>
        <pt x="331" y="148" on="0"/>
        <pt x="343" y="266" on="0"/>
        <pt x="343" y="364" on="1"/>
        <pt x="332" y="369" on="0"/>
        <pt x="277" y="392" on="0"/>
      </contour>
    </TTGlyph>
    <TTGlyph name="uacute" xMin="65" yMin="260" xMax="165" yMax="360">
      <contour>
        <pt x="65" y="260" on="1"/>
        <pt x="65" y="360" on="1"/>
        <pt x="165" y="360" on="1"/>
        <pt x="165" y="260" on="1"/>
      </contour>
    </TTGlyph>
    <TTGlyph name="ucircumflex" xMin="65" yMin="260" xMax="165" yMax="360">
      <contour>
        <pt x="65" y="260" on="1"/>
        <pt x="65" y="360" on="1"/>
        <pt x="165" y="360" on="1"/>
        <pt x="165" y="260" on="1"/>
      </contour>
    </TTGlyph>
    <TTGlyph name="udieresis" xMin="65" yMin="260" xMax="165" yMax="360">
      <contour>
        <pt x="65" y="260" on="1"/>
        <pt x="65" y="360" on="1"/>
        <pt x="165" y="360" on="1"/>
        <pt x="165" y="260" on="1"/>
      </contour>
    </TTGlyph>
    <TTGlyph name="ugrave" xMin="65" yMin="260" xMax="165" yMax="360">
      <contour>
        <pt x="65" y="260" on="1"/>
        <pt x="65" y="360" on="1"/>
        <pt x="165" y="360" on="1"/>
        <pt x="165" y="260" on="1"/>
      </contour>
    </TTGlyph>
    <TTGlyph name="underscore" xMin="25" yMin="-175" xMax="430" yMax="707">
      <contour>
        <pt x="409" y="617" on="1"/>
        <pt x="372" y="628" on="0"/>
        <pt x="297" y="637" on="0"/>
        <pt x="270" y="637" on="1"/>
        <pt x="239" y="637" on="0"/>
        <pt x="202" y="627" on="0"/>
        <pt x="182" y="609" on="0"/>
        <pt x="175" y="582" on="0"/>
        <pt x="175" y="565" on="1"/>
        <pt x="175" y="500" on="1"/>
        <pt x="430" y="500" on="1"/>
        <pt x="430" y="-43" on="1"/>
        <pt x="430" y="-71" on="0"/>
        <pt x="414" y="-119" on="0"/>
        <pt x="383" y="-155" on="0"/>
        <pt x="337" y="-175" on="0"/>
        <pt x="306" y="-175" on="1"/>
        <pt x="282" y="-175" on="0"/>
        <pt x="239" y="-172" on="0"/>
        <pt x="219" y="-170" on="1"/>
        <pt x="219" y="-99" on="1"/>
        <pt x="235" y="-101" on="0"/>
        <pt x="281" y="-103" on="0"/>
        <pt x="293" y="-103" on="1"/>
        <pt x="345" y="-103" on="0"/>
        <pt x="345" y="-48" on="1"/>
        <pt x="345" y="427" on="1"/>
        <pt x="175" y="427" on="1"/>
        <pt x="175" y="0" on="1"/>
        <pt x="90" y="0" on="1"/>
        <pt x="90" y="427" on="1"/>
        <pt x="25" y="427" on="1"/>
        <pt x="25" y="500" on="1"/>
        <pt x="90" y="500" on="1"/>
        <pt x="90" y="558" on="1"/>
        <pt x="90" y="593" on="0"/>
        <pt x="107" y="649" on="0"/>
        <pt x="146" y="687" on="0"/>
        <pt x="210" y="707" on="0"/>
        <pt x="257" y="707" on="1"/>
        <pt x="289" y="707" on="0"/>
        <pt x="369" y="696" on="0"/>
        <pt x="409" y="687" on="1"/>
      </contour>
    </TTGlyph>
    <TTGlyph name="uni00AD" xMin="85" yMin="275" xMax="410" yMax="350">
      <contour>
        <pt x="85" y="275" on="1"/>
        <pt x="85" y="350" on="1"/>
        <pt x="410" y="350" on="1"/>
        <pt x="410" y="275" on="1"/>
      </contour>
    </TTGlyph>
    <TTGlyph name="uni2219" xMin="65" yMin="260" xMax="165" yMax="360">
      <contour>
        <pt x="65" y="260" on="1"/>
        <pt x="65" y="360" on="1"/>
        <pt x="165" y="360" on="1"/>
        <pt x="165" y="260" on="1"/>
      </contour>
    </TTGlyph>
    <TTGlyph name="uni2224" xMin="65" yMin="260" xMax="165" yMax="360">
      <contour>
        <pt x="65" y="260" on="1"/>
        <pt x="65" y="360" on="1"/>
        <pt x="165" y="360" on="1"/>
        <pt x="165" y="260" on="1"/>
      </contour>
    </TTGlyph>
    <TTGlyph name="uni25AF" xMin="50" yMin="0" xMax="450" yMax="705">
      <contour>
        <pt x="50" y="705" on="1"/>
        <pt x="450" y="705" on="1"/>
        <pt x="450" y="0" on="1"/>
        <pt x="50" y="0" on="1"/>
      </contour>
      <contour>
        <pt x="400" y="50" on="1"/>
        <pt x="400" y="655" on="1"/>
        <pt x="100" y="655" on="1"/>
        <pt x="100" y="50" on="1"/>
      </contour>
    </TTGlyph>
    <TTGlyph name="v" xMin="35" yMin="-3" xMax="235" yMax="700">
      <contour>
        <pt x="235" y="5" on="1"/>
        <pt x="224" y="3" on="0"/>
        <pt x="195" y="-3" on="0"/>
        <pt x="175" y="-3" on="1"/>
        <pt x="160" y="-3" on="0"/>
        <pt x="130" y="7" on="0"/>
        <pt x="106" y="33" on="0"/>
        <pt x="90" y="78" on="0"/>
        <pt x="90" y="112" on="1"/>
        <pt x="90" y="335" on="1"/>
        <pt x="35" y="300" on="1"/>
        <pt x="35" y="378" on="1"/>
        <pt x="90" y="414" on="1"/>
        <pt x="90" y="700" on="1"/>
        <pt x="175" y="700" on="1"/>
        <pt x="175" y="469" on="1"/>
        <pt x="235" y="509" on="1"/>
        <pt x="235" y="429" on="1"/>
        <pt x="175" y="390" on="1"/>
        <pt x="175" y="117" on="1"/>
        <pt x="175" y="91" on="0"/>
        <pt x="188" y="70" on="0"/>
        <pt x="208" y="70" on="1"/>
        <pt x="216" y="70" on="0"/>
        <pt x="231" y="74" on="0"/>
        <pt x="235" y="75" on="1"/>
      </contour>
    </TTGlyph>
    <TTGlyph name="w" xMin="80" yMin="-170" xMax="434" yMax="700">
      <contour>
        <pt x="80" y="-170" on="1"/>
        <pt x="80" y="700" on="1"/>
        <pt x="165" y="700" on="1"/>
        <pt x="165" y="463" on="1"/>
        <pt x="212" y="507" on="0"/>
        <pt x="276" y="507" on="1"/>
        <pt x="364" y="507" on="0"/>
        <pt x="434" y="394" on="0"/>
        <pt x="434" y="282" on="1"/>
        <pt x="434" y="200" on="0"/>
        <pt x="412" y="89" on="0"/>
        <pt x="362" y="22" on="0"/>
        <pt x="281" y="-7" on="0"/>
        <pt x="221" y="-7" on="1"/>
        <pt x="204" y="-7" on="0"/>
        <pt x="176" y="-5" on="0"/>
        <pt x="165" y="-3" on="1"/>
        <pt x="165" y="-170" on="1"/>
      </contour>
      <contour>
        <pt x="260" y="435" on="1"/>
        <pt x="239" y="435" on="0"/>
        <pt x="204" y="419" on="0"/>
        <pt x="179" y="393" on="0"/>
        <pt x="165" y="364" on="0"/>
        <pt x="165" y="350" on="1"/>
        <pt x="165" y="69" on="1"/>
        <pt x="176" y="67" on="0"/>
        <pt x="208" y="65" on="0"/>
        <pt x="231" y="65" on="1"/>
        <pt x="267" y="65" on="0"/>
        <pt x="312" y="91" on="0"/>
        <pt x="337" y="143" on="0"/>
        <pt x="347" y="220" on="0"/>
        <pt x="347" y="272" on="1"/>
        <pt x="347" y="320" on="0"/>
        <pt x="338" y="382" on="0"/>
        <pt x="317" y="420" on="0"/>
        <pt x="284" y="435" on="0"/>
      </contour>
    </TTGlyph>
    <TTGlyph name="x" xMin="55" yMin="-7" xMax="368" yMax="714">
      <contour>
        <pt x="352" y="145" on="1"/>
        <pt x="352" y="62" on="0"/>
        <pt x="261" y="-7" on="0"/>
        <pt x="184" y="-7" on="1"/>
        <pt x="141" y="-7" on="0"/>
        <pt x="81" y="4" on="0"/>
        <pt x="64" y="9" on="1"/>
        <pt x="64" y="82" on="1"/>
        <pt x="73" y="80" on="0"/>
        <pt x="102" y="75" on="0"/>
        <pt x="136" y="70" on="0"/>
        <pt x="173" y="66" on="0"/>
        <pt x="191" y="66" on="1"/>
        <pt x="211" y="66" on="0"/>
        <pt x="238" y="79" on="0"/>
        <pt x="255" y="100" on="0"/>
        <pt x="263" y="127" on="0"/>
        <pt x="263" y="140" on="1"/>
        <pt x="263" y="176" on="0"/>
        <pt x="238" y="210" on="0"/>
        <pt x="200" y="217" on="1"/>
        <pt x="123" y="231" on="0"/>
        <pt x="60" y="300" on="0"/>
        <pt x="60" y="356" on="1"/>
        <pt x="60" y="397" on="0"/>
        <pt x="86" y="454" on="0"/>
        <pt x="131" y="490" on="0"/>
        <pt x="192" y="507" on="0"/>
        <pt x="228" y="507" on="1"/>
        <pt x="267" y="507" on="0"/>
        <pt x="320" y="494" on="0"/>
        <pt x="335" y="490" on="1"/>
        <pt x="335" y="417" on="1"/>
        <pt x="309" y="423" on="0"/>
        <pt x="261" y="435" on="0"/>
        <pt x="220" y="435" on="1"/>
        <pt x="197" y="435" on="0"/>
        <pt x="168" y="422" on="0"/>
        <pt x="152" y="401" on="0"/>
        <pt x="147" y="375" on="0"/>
        <pt x="147" y="361" on="1"/>
        <pt x="147" y="306" on="0"/>
        <pt x="211" y="296" on="1"/>
        <pt x="289" y="283" on="0"/>
        <pt x="352" y="211" on="0"/>
      </contour>
      <contour>
        <pt x="152" y="714" on="1"/>
        <pt x="212" y="630" on="1"/>
        <pt x="272" y="714" on="1"/>
        <pt x="368" y="714" on="1"/>
        <pt x="256" y="579" on="1"/>
        <pt x="168" y="579" on="1"/>
        <pt x="55" y="714" on="1"/>
      </contour>
    </TTGlyph>
    <TTGlyph name="y" xMin="35" yMin="-175" xMax="428" yMax="715">
      <contour>
        <pt x="193" y="580" on="1"/>
        <pt x="297" y="715" on="1"/>
        <pt x="406" y="715" on="1"/>
        <pt x="274" y="580" on="1"/>
      </contour>
      <contour>
        <pt x="283" y="-44" on="1"/>
        <pt x="275" y="-73" on="0"/>
        <pt x="257" y="-122" on="0"/>
        <pt x="230" y="-156" on="0"/>
        <pt x="189" y="-175" on="0"/>
        <pt x="159" y="-175" on="1"/>
        <pt x="143" y="-175" on="0"/>
        <pt x="111" y="-171" on="0"/>
        <pt x="102" y="-169" on="1"/>
        <pt x="102" y="-96" on="1"/>
        <pt x="113" y="-98" on="0"/>
        <pt x="139" y="-100" on="0"/>
        <pt x="154" y="-100" on="1"/>
        <pt x="182" y="-100" on="0"/>
        <pt x="194" y="-55" on="1"/>
        <pt x="210" y="0" on="1"/>
        <pt x="190" y="0" on="1"/>
        <pt x="35" y="500" on="1"/>
        <pt x="127" y="500" on="1"/>
        <pt x="243" y="87" on="1"/>
        <pt x="341" y="500" on="1"/>
        <pt x="428" y="500" on="1"/>
      </contour>
    </TTGlyph>
    <TTGlyph name="yacute" xMin="65" yMin="260" xMax="165" yMax="360">
      <contour>
        <pt x="65" y="260" on="1"/>
        <pt x="65" y="360" on="1"/>
        <pt x="165" y="360" on="1"/>
        <pt x="165" y="260" on="1"/>
      </contour>
    </TTGlyph>
    <TTGlyph name="ydieresis" xMin="65" yMin="260" xMax="165" yMax="360">
      <contour>
        <pt x="65" y="260" on="1"/>
        <pt x="65" y="360" on="1"/>
        <pt x="165" y="360" on="1"/>
        <pt x="165" y="260" on="1"/>
      </contour>
    </TTGlyph>
    <TTGlyph name="yen" xMin="65" yMin="260" xMax="165" yMax="360">
      <contour>
        <pt x="65" y="260" on="1"/>
        <pt x="65" y="360" on="1"/>
        <pt x="165" y="360" on="1"/>
        <pt x="165" y="260" on="1"/>
      </contour>
    </TTGlyph>
    <TTGlyph name="z" xMin="45" yMin="0" xMax="373" yMax="714">
      <contour>
        <pt x="137" y="74" on="1"/>
        <pt x="343" y="74" on="1"/>
        <pt x="343" y="0" on="1"/>
        <pt x="45" y="0" on="1"/>
        <pt x="45" y="80" on="1"/>
        <pt x="262" y="426" on="1"/>
        <pt x="65" y="426" on="1"/>
        <pt x="65" y="500" on="1"/>
        <pt x="353" y="500" on="1"/>
        <pt x="353" y="411" on="1"/>
      </contour>
      <contour>
        <pt x="157" y="714" on="1"/>
        <pt x="217" y="630" on="1"/>
        <pt x="277" y="714" on="1"/>
        <pt x="373" y="714" on="1"/>
        <pt x="261" y="579" on="1"/>
        <pt x="173" y="579" on="1"/>
        <pt x="60" y="714" on="1"/>
      </contour>
    </TTGlyph>
    <TTGlyph name="zcaron" xMin="65" yMin="260" xMax="165" yMax="360">
      <contour>
        <pt x="65" y="260" on="1"/>
        <pt x="65" y="360" on="1"/>
        <pt x="165" y="360" on="1"/>
        <pt x="165" y="260" on="1"/>
      </contour>
    </TTGlyph>
    <TTGlyph name="zero" xMin="75" yMin="0" xMax="555" yMax="480">
      <contour>
        <pt x="75" y="0" on="1"/>
        <pt x="75" y="480" on="1"/>
        <pt x="315" y="480" on="1"/>
        <pt x="315" y="240" on="1"/>
        <pt x="555" y="240" on="1"/>
        <pt x="555" y="0" on="1"/>
      </contour>
      <contour>
        <pt x="435" y="360" on="1"/>
        <pt x="435" y="480" on="1"/>
        <pt x="555" y="480" on="1"/>
        <pt x="555" y="360" on="1"/>
      </contour>
    </TTGlyph>
</ttFont>
